<svg id="Layer_1" data-name="Layer 1" xmlns="http://www.w3.org/2000/svg" viewBox="0 0 123.42 125.68"><defs><style>.cls-1{fill:#fff;}.cls-2{fill:#e1f2fb;}.cls-3{fill:#aaaba6;}.cls-4{fill:#f8fbf9;}.cls-5{fill:#343434;}.cls-6{fill:#f4991c;}.cls-7{fill:#9c857a;}.cls-8{fill:#633f21;}.cls-9{fill:#1d1d1b;}</style></defs><title>admin</title><path class="cls-1" d="M98.62,67.63l.41-.37h0a10.83,10.83,0,0,0,.64,2.29,4.24,4.24,0,0,0,.59.92h.11L96.3,74.26a2.62,2.62,0,0,1-3,.21l-4.23-3.94.27-.1a3.85,3.85,0,0,0,.58-.92,10.15,10.15,0,0,0,.65-2.29h0l.41.37a4.54,4.54,0,0,0,2.43,1.12h.2a6.42,6.42,0,0,0,1.16.11,5.61,5.61,0,0,0,.58,0l.58-.08h.2A4.64,4.64,0,0,0,98.62,67.63Z" transform="translate(-0.28)"/><path class="cls-2" d="M116.76,88.33H72.9a46.38,46.38,0,0,1,1.92-10.45,4.33,4.33,0,0,1,2.4-2.61L89.1,70.58l4.23,3.94a2.62,2.62,0,0,0,3-.21l4.07-3.79,12,4.75a4.34,4.34,0,0,1,2.44,2.61A46.38,46.38,0,0,1,116.76,88.33Z" transform="translate(-0.28)"/><path class="cls-3" d="M85.47,53.16c.73,7.09,1.91,11,5.16,14.1h0A10.15,10.15,0,0,1,90,69.55s-6.87.57-6.8-1.85c.22-7.27-4.59-15.41,2.45-23.31L87,47.89a36.77,36.77,0,0,1,11.7-.57C95.61,51.31,91.41,52.29,85.47,53.16Z" transform="translate(-0.28)"/><path class="cls-3" d="M106.5,67.71c.07,2.42-6.8,1.85-6.8,1.85h0a10.83,10.83,0,0,1-.64-2.29h0a13.4,13.4,0,0,0,3.38-5.16,34.74,34.74,0,0,0,1.74-8.55c-1.58-.78-2.93-3.89-3.68-6,.7.1,1.44.22,2.22.35l1.33-3.54C111.11,52.27,106.29,60.42,106.5,67.71Z" transform="translate(-0.28)"/><path class="cls-4" d="M104.37,39.75a2.29,2.29,0,0,1,.49,2.39L104,44.36l-1.33,3.52c-.78-.13-1.52-.25-2.22-.35s-1.24-.16-1.84-.22a36.77,36.77,0,0,0-11.7.57l-1.32-3.5-.85-2.26a2.25,2.25,0,0,1,.49-2.39,14.61,14.61,0,0,1,19.12,0Z" transform="translate(-0.28)"/><path class="cls-4" d="M104.15,53.55a34.74,34.74,0,0,1-1.74,8.55A13.4,13.4,0,0,1,99,67.26l-.41.37a4.6,4.6,0,0,1-2.4,1.12H96l-.58.08a5.61,5.61,0,0,1-.58,0,6.42,6.42,0,0,1-1.16-.11h-.2a4.54,4.54,0,0,1-2.43-1.12l-.41-.37c-3.25-3.09-4.43-7-5.16-14.1,5.94-.87,10.14-1.85,13.16-5.83.6.06,1.2.14,1.84.22C101.22,49.66,102.57,52.77,104.15,53.55Z" transform="translate(-0.28)"/><path class="cls-5" d="M94.84,69.37a7.33,7.33,0,0,1-1.24-.11h-.2A5.09,5.09,0,0,1,90.74,68l-.44-.4C86.75,64.26,85.69,60,85,53.28V53.2a.49.49,0,0,1,.43-.48c5.63-.82,9.85-1.71,12.83-5.64l.76.58c-3.11,4.1-7.55,5.13-13,5.94.78,7.18,2.06,10.58,5,13.35l.39.37a4.19,4.19,0,0,0,2.2,1h.2a5.64,5.64,0,0,0,1.08.1,4.69,4.69,0,0,0,.53,0l.55-.08h.2a4.08,4.08,0,0,0,2.21-1c.12-.1.25-.22.38-.35A12.81,12.81,0,0,0,102,62a33.22,33.22,0,0,0,1.68-8.13c-1.55-1-2.82-3.83-3.62-6.09l.9-.32c1.11,3.11,2.36,5.2,3.44,5.73a.49.49,0,0,1,.27.48,35.72,35.72,0,0,1-1.77,8.67,13.69,13.69,0,0,1-3.5,5.33l-.42.39a5.12,5.12,0,0,1-2.78,1.17H96l-.6.08A5.73,5.73,0,0,1,94.84,69.37Z" transform="translate(-0.28)"/><path class="cls-5" d="M101.39,70.1A10.87,10.87,0,0,1,99.66,70l.08-1c1.32.11,5,.17,6-.83a.69.69,0,0,0,.23-.54,33.83,33.83,0,0,1,.69-6.66c.89-5.38,1.82-11-3-16.38l.71-.64c5.17,5.78,4.2,11.57,3.27,17.17a33.71,33.71,0,0,0-.67,6.49,1.64,1.64,0,0,1-.54,1.25C105.42,69.88,103.05,70.1,101.39,70.1Z" transform="translate(-0.28)"/><path class="cls-5" d="M88.27,70.1c-1.66,0-4-.18-5-1.15a1.6,1.6,0,0,1-.54-1.26,33.53,33.53,0,0,0-.67-6.48c-1-5.59-1.94-11.33,3.16-17.13l.72.63c-4.83,5.42-3.91,11-3,16.34a34.79,34.79,0,0,1,.69,6.67.69.69,0,0,0,.23.54c1.06,1,4.73.93,6,.83l.08,1C89.82,70.05,89.14,70.1,88.27,70.1Z" transform="translate(-0.28)"/><path class="cls-5" d="M94.68,75.36a3.16,3.16,0,0,1-1.59-.43L93,74.88l-4.23-3.94.65-.7,4.19,3.9A2.1,2.1,0,0,0,96,74L100.22,70l.65.69-4.23,3.94A3,3,0,0,1,94.68,75.36Z" transform="translate(-0.28)"/><path class="cls-5" d="M116.76,88.8H72.9a.48.48,0,0,1-.36-.15.5.5,0,0,1-.12-.37,46.62,46.62,0,0,1,2-10.54A4.86,4.86,0,0,1,77,74.88l12-4.75a3.75,3.75,0,0,0,.44-.72,9.69,9.69,0,0,0,.6-2.12v-.07l.93.2v.07a10.5,10.5,0,0,1-.66,2.33,4.64,4.64,0,0,1-.65,1,.52.52,0,0,1-.19.14L77.41,75.71A3.81,3.81,0,0,0,75.28,78a44.53,44.53,0,0,0-1.86,9.84h42.8a44.85,44.85,0,0,0-1.86-9.81,3.89,3.89,0,0,0-2.14-2.37L100.1,70.88a.52.52,0,0,1-.19-.14,4.4,4.4,0,0,1-.65-1,10.51,10.51,0,0,1-.68-2.39l.94-.2a9.26,9.26,0,0,0,.61,2.19,3.75,3.75,0,0,0,.44.72l12,4.74a4.85,4.85,0,0,1,2.69,2.92,46.62,46.62,0,0,1,2,10.54.5.5,0,0,1-.12.37A.49.49,0,0,1,116.76,88.8Z" transform="translate(-0.28)"/><path class="cls-5" d="M86.93,48.38a.48.48,0,0,1-.45-.31l-2.17-5.76a2.75,2.75,0,0,1,.6-2.89,15.06,15.06,0,0,1,19.8,0,2.75,2.75,0,0,1,.6,2.89l-2.17,5.76a.49.49,0,0,1-.53.3c-.77-.13-1.51-.24-2.21-.34s-1.23-.17-1.82-.23h0A36.49,36.49,0,0,0,87,48.37Zm11.75-1.5c.6.07,1.22.14,1.85.23l1.85.28,2-5.39a1.79,1.79,0,0,0-.38-1.88,14.14,14.14,0,0,0-18.44,0A1.81,1.81,0,0,0,85.17,42l2,5.39A37.07,37.07,0,0,1,98.68,46.88Z" transform="translate(-0.28)"/><rect class="cls-5" x="94.05" y="39.33" width="0.95" height="5.38"/><rect class="cls-5" x="91.97" y="41.55" width="5.12" height="0.95"/><path class="cls-2" d="M22.87,88.51h-9a68.14,68.14,0,0,1,2.19-12.84,4.92,4.92,0,0,1,2.71-2.89l13.17-5.21c5.46,3,8.61,2.9,14.12,0l13.25,5.18A4.84,4.84,0,0,1,62,75.64a66.09,66.09,0,0,1,2.18,12.87Z" transform="translate(-0.28)"/><path class="cls-1" d="M32.79,62.32h0a17,17,0,0,1-3.36-4l-.94-2.44a1.88,1.88,0,0,0-.44-.64c-1.64-1.42-2.76-4.51-1.4-5.68a1.68,1.68,0,0,1,.42-.27s.83.7,1.47,0A11.33,11.33,0,0,0,31.22,45a15.72,15.72,0,0,0,.67-2.44c0-.19.24-.31.43-.36a.69.69,0,0,1,.56.12,21.05,21.05,0,0,0,15.19,4,.4.4,0,0,1,.45.3,5.48,5.48,0,0,0,1,2.11,1.14,1.14,0,0,0,1.45.45,1.83,1.83,0,0,1,.44.28c1.34,1.19.22,4.25-1.41,5.67a1.5,1.5,0,0,0-.44.64l-1,2.47a16.74,16.74,0,0,1-3.36,4,15.61,15.61,0,0,1-1.48,1.21,6,6,0,0,1-3,1h-.23a10.56,10.56,0,0,1-3,0h-.23a6,6,0,0,1-3-1A16.24,16.24,0,0,1,32.79,62.32Z" transform="translate(-0.28)"/><path class="cls-3" d="M50.9,49.24a1.14,1.14,0,0,1-1.45-.45,5.48,5.48,0,0,1-1-2.11.4.4,0,0,0-.45-.3,21.05,21.05,0,0,1-15.19-4,.69.69,0,0,0-.56-.12.47.47,0,0,0-.43.36,16.65,16.65,0,0,1-.6,2.41,11.23,11.23,0,0,1-2.64,4.26c-.64.65-1.47,0-1.47,0a1.68,1.68,0,0,0-.42.27c0-1.19-.1-3.92-.16-4.86,0-3.2.85-9.73,7.08-9.74,2,0,1.43-1.3,5.25-1.3,11.7,0,12.67,7.49,12.67,11-.12.87-.14,3.58-.15,4.87h0A2,2,0,0,0,50.9,49.24Z" transform="translate(-0.28)"/><path class="cls-1" d="M45.76,67.5l.3.11c-5.51,2.86-8.66,2.92-14.12,0l.19-.07a30.09,30.09,0,0,0,.66-5.18c.49.44,1,.85,1.48,1.21a6,6,0,0,0,3,1h.23a10.56,10.56,0,0,0,3,0h.23a6,6,0,0,0,3-1,17.34,17.34,0,0,0,1.45-1.25A32.16,32.16,0,0,0,45.76,67.5Z" transform="translate(-0.28)"/><rect class="cls-5" x="29.44" y="76.97" width="1.11" height="6.63"/><rect class="cls-5" x="26.58" y="79.75" width="6.81" height="1.08"/><path class="cls-5" d="M51.9,49.52H50.79c0-1.17,0-4,.15-4.94a10.79,10.79,0,0,0-1.85-6.47c-1.93-2.63-5.38-4-10.25-4h0a5.37,5.37,0,0,0-3.3.73,3.47,3.47,0,0,1-1.95.57c-5.91,0-6.53,6.44-6.53,9.2.07.9.13,3.54.16,4.81l-.55,0h-.55c0-1.18-.1-3.91-.17-4.82,0-2.44.54-10.3,7.64-10.32A2.31,2.31,0,0,0,35,33.91,6.51,6.51,0,0,1,38.84,33h0c5.24,0,9,1.49,11.15,4.41a11.85,11.85,0,0,1,2,7.17C51.92,45.62,51.9,48.62,51.9,49.52Z" transform="translate(-0.28)"/><path class="cls-5" d="M39,65.19a8.67,8.67,0,0,1-1.61-.12h-.23A6.48,6.48,0,0,1,33.94,64a18.25,18.25,0,0,1-1.52-1.24,17.59,17.59,0,0,1-3.48-4.16v-.07L28,56a1,1,0,0,0-.3-.42,6.57,6.57,0,0,1-2.18-4.53,2.27,2.27,0,0,1,1.35-2.31.55.55,0,0,1,.59.08c.07.06.45.34.71.09a10.69,10.69,0,0,0,2.49-4.07,15,15,0,0,0,.64-2.36,1,1,0,0,1,.86-.78,1.2,1.2,0,0,1,1.06.14,20.51,20.51,0,0,0,14.73,4A1,1,0,0,1,49,46.6a5.2,5.2,0,0,0,.88,1.91.62.62,0,0,0,.76.28.55.55,0,0,1,.47,0,1.93,1.93,0,0,1,.59.38,2.54,2.54,0,0,1,.77,2,6.68,6.68,0,0,1-2.19,4.51,1,1,0,0,0-.29.41l-1,2.48v.07a17.31,17.31,0,0,1-3.47,4.16A18.25,18.25,0,0,1,44,64a6.51,6.51,0,0,1-3.22,1.08h-.24A9.17,9.17,0,0,1,39,65.19Zm-9-7.11a16.79,16.79,0,0,0,3.28,3.85c.46.41.93.8,1.43,1.17a5.57,5.57,0,0,0,2.72.87h.22a9.34,9.34,0,0,0,2.89,0h.22a5.57,5.57,0,0,0,2.72-.87,15.87,15.87,0,0,0,1.43-1.17,16.62,16.62,0,0,0,3.24-3.85L49,55.64a2,2,0,0,1,.59-.85,5.59,5.59,0,0,0,1.82-3.71,1.53,1.53,0,0,0-.46-1.2h-.12A1.73,1.73,0,0,1,49,49.15,5.88,5.88,0,0,1,48,47a21.68,21.68,0,0,1-15.47-4.16h-.08a15.75,15.75,0,0,1-.68,2.44A11.59,11.59,0,0,1,29,49.71a1.53,1.53,0,0,1-1.88.22h0a1.48,1.48,0,0,0-.43,1.15,5.64,5.64,0,0,0,1.82,3.73,2.13,2.13,0,0,1,.6.85Z" transform="translate(-0.28)"/><path class="cls-5" d="M64.22,89.05H13.87a.52.52,0,0,1-.4-.18.53.53,0,0,1-.15-.41,66.58,66.58,0,0,1,2.22-13,5.4,5.4,0,0,1,3-3.21l13.11-5.18a29.56,29.56,0,0,0,.57-4.78h1.11a30.62,30.62,0,0,1-.68,5.31.58.58,0,0,1-.33.37L19,73.28a4.3,4.3,0,0,0-2.39,2.6A64.85,64.85,0,0,0,14.48,88H63.62a67.38,67.38,0,0,0-2.1-12.13,4.34,4.34,0,0,0-2.43-2.57L45.56,68a.55.55,0,0,1-.34-.37,32.33,32.33,0,0,1-.59-5.28h1.11a33.4,33.4,0,0,0,.5,4.78h0l13.28,5.16a5.42,5.42,0,0,1,3,3.22,67.45,67.45,0,0,1,2.21,13,.53.53,0,0,1-.15.41A.53.53,0,0,1,64.22,89.05Z" transform="translate(-0.28)"/><path class="cls-5" d="M39,70.33c-2.25,0-4.48-.76-7.29-2.28l.54-1c5.24,2.84,8.16,2.85,13.58,0l.61.91h-.11C43.43,69.58,41.22,70.33,39,70.33Z" transform="translate(-0.28)"/><polygon class="cls-5" points="54.39 88.58 53.65 83.45 54.74 83.3 55.49 88.43 54.39 88.58"/><polygon class="cls-5" points="23.14 88.58 22.04 88.43 22.79 83.3 23.89 83.45 23.14 88.58"/><ellipse class="cls-6" cx="61.71" cy="62.84" rx="61.71" ry="62.84"/><path class="cls-1" d="M101.31,88.31v6.57a3.92,3.92,0,0,1-3.55,3.7H26.22a3.92,3.92,0,0,1-3.55-3.7V88.36H54.22l2.51,4.14H67.22l2.51-4.14h31.56Z" transform="translate(-0.28)"/><path class="cls-1" d="M95.22,42.82V88.31H69.75l-2.53,4.14H56.74l-2.52-4.14H28.74V42.82a3.8,3.8,0,0,1,3.54-4H50.44c0,1.2.09,3,.11,3.93-1.26,1.15-.22,4.18,1.3,5.57a1.61,1.61,0,0,1,.37.56l.88,2.42a16.25,16.25,0,0,0,3.12,4h0a26,26,0,0,1-.47,4.49L42.06,65.34a4.82,4.82,0,0,0-2.64,2.93A105.88,105.88,0,0,0,37,83.8H87a104.27,104.27,0,0,0-2.44-15.51,4.87,4.87,0,0,0-2.67-3L68.22,59.76a26,26,0,0,1-.47-4.49h0a16.1,16.1,0,0,0,3.12-3.94l.85-2.45a1.64,1.64,0,0,1,.41-.62c1.51-1.38,2.55-4.38,1.31-5.53,0-1,0-2.8.08-4H91.7a3.81,3.81,0,0,1,3.52,4.08Z" transform="translate(-0.28)"/><path class="cls-7" d="M75.43,70.31a2.06,2.06,0,0,0-.78.09,2.44,2.44,0,0,0-1.66,3,2.41,2.41,0,0,0,3,1.69h0a2.44,2.44,0,0,0,1.66-3A2.41,2.41,0,0,0,75.43,70.31ZM87,83.8H37a104.47,104.47,0,0,1,2.41-15.53,4.82,4.82,0,0,1,2.64-2.93l13.72-5.58,4.52,7.12a2,2,0,0,0,3.37,0l4.55-7.12,13.7,5.58a4.87,4.87,0,0,1,2.67,3A104.89,104.89,0,0,1,87,83.8Z" transform="translate(-0.28)"/><path class="cls-1" d="M73.44,42.73c1.24,1.17.2,4.17-1.31,5.56a1.64,1.64,0,0,0-.41.62l-.87,2.42a16.1,16.1,0,0,1-3.12,3.94h0a15.47,15.47,0,0,1-1.37,1.18,5.38,5.38,0,0,1-2.75,1H63.4a8.89,8.89,0,0,1-2.82,0h-.21a5.35,5.35,0,0,1-2.75-1,15.87,15.87,0,0,1-1.4-1.18h0a16.49,16.49,0,0,1-3.11-3.94l-.89-2.45a1.51,1.51,0,0,0-.4-.62c-1.49-1.38-2.53-4.38-1.27-5.54a2,2,0,0,1,.39-.26s.77.68,1.36,0a11.14,11.14,0,0,0,2.45-4.17,15.38,15.38,0,0,0,.62-2.4.5.5,0,0,1,.4-.34.58.58,0,0,1,.52.11,18.8,18.8,0,0,0,14.08,3.94.38.38,0,0,1,.42.3,5.8,5.8,0,0,0,.9,2.07,1,1,0,0,0,1.34.44A1.62,1.62,0,0,1,73.44,42.73Z" transform="translate(-0.28)"/><path class="cls-8" d="M50.44,38.79V38c0-3.15.79-9.53,6.57-9.55,1.83,0,1.32-1.27,4.86-1.27,10.85,0,11.75,7.33,11.75,10.82a5.39,5.39,0,0,0-.06.8c-.06,1.16-.07,3-.08,4a1.62,1.62,0,0,0-.41-.27,1,1,0,0,1-1.34-.44,5.8,5.8,0,0,1-.9-2.07.38.38,0,0,0-.42-.3,18.8,18.8,0,0,1-14.08-3.94.58.58,0,0,0-.52-.11.5.5,0,0,0-.4.34,15.38,15.38,0,0,1-.62,2.4,11.14,11.14,0,0,1-2.45,4.17c-.59.63-1.36,0-1.36,0a2,2,0,0,0-.39.26C50.53,41.82,50.49,40,50.44,38.79Z" transform="translate(-0.28)"/><path class="cls-1" d="M68.22,59.76l-4.55,7.12a2,2,0,0,1-3.37,0l-4.52-7.1a25.34,25.34,0,0,0,.44-4.51,15.47,15.47,0,0,0,1.37,1.18,5.35,5.35,0,0,0,2.75,1h.21a8.89,8.89,0,0,0,2.82,0h.21a5.38,5.38,0,0,0,2.75-1,15.47,15.47,0,0,0,1.37-1.18A26.07,26.07,0,0,0,68.22,59.76Z" transform="translate(-0.28)"/><path class="cls-9" d="M86.27,83.88a104.59,104.59,0,0,0-2.4-15.34A4.14,4.14,0,0,0,81.61,66L68.49,60.69l-4.2,6.58A2.68,2.68,0,0,1,62,68.54a2.73,2.73,0,0,1-2.31-1.27l-4.19-6.58L42.33,66a4.14,4.14,0,0,0-2.22,2.47,103.66,103.66,0,0,0-2.4,15.37l-1.49-.14A102.81,102.81,0,0,1,38.7,68a5.62,5.62,0,0,1,3-3.39l13.73-5.58a.73.73,0,0,1,.9.28l4.52,7.1a1.3,1.3,0,0,0,1.81.32,1.62,1.62,0,0,0,.32-.32l4.53-7.11a.72.72,0,0,1,.89-.28l13.82,5.59a5.54,5.54,0,0,1,3.09,3.4,102.68,102.68,0,0,1,2.48,15.69Z" transform="translate(-0.28)"/><path class="cls-9" d="M96,88.31H94.51V42.82a3.07,3.07,0,0,0-2.81-3.28H74V38H91.7A4.55,4.55,0,0,1,96,42.82Z" transform="translate(-0.28)"/><path class="cls-9" d="M29.47,88.31H28V42.82A4.55,4.55,0,0,1,32.28,38h18.3v1.5H32.28a3.07,3.07,0,0,0-2.81,3.28Z" transform="translate(-0.28)"/><path class="cls-9" d="M97.76,99.28H26.22a4.68,4.68,0,0,1-4.28-4.46V88.31a.74.74,0,0,1,.73-.75H54.22a.75.75,0,0,1,0,1.49H23.41v5.77a3.16,3.16,0,0,0,2.81,3H97.76a3.16,3.16,0,0,0,2.81-3V89.05H69.75a.75.75,0,0,1,0-1.49h31.56a.74.74,0,0,1,.73.75h0v6.51A4.68,4.68,0,0,1,97.76,99.28Z" transform="translate(-0.28)"/><path class="cls-9" d="M67.22,93.2H56.74a.73.73,0,0,1-.63-.35L53.6,88.7a.76.76,0,0,1,.24-1,.74.74,0,0,1,1,.24l2.29,3.79h9.68l2.31-3.85a.74.74,0,0,1,1-.24.76.76,0,0,1,.24,1l-2.49,4.24A.76.76,0,0,1,67.22,93.2Z" transform="translate(-0.28)"/><path class="cls-9" d="M74.22,42.74H72.71c0-.91,0-2.79.07-4a3.14,3.14,0,0,1,.06-.81,10.84,10.84,0,0,0-1.62-6.25c-1.8-2.51-4.93-3.8-9.37-3.8h0a4.61,4.61,0,0,0-2.94.68,3.28,3.28,0,0,1-1.92.59c-5.28,0-5.84,6.16-5.83,8.8v.79c0,1.2.09,3,.11,3.94H49.8c0-.89-.07-2.72-.11-3.91V38c0-2.46.5-10.33,7.29-10.35a1.74,1.74,0,0,0,1.16-.37,5.91,5.91,0,0,1,3.71-.9h0c4.94,0,8.48,1.49,10.52,4.42a12.22,12.22,0,0,1,1.94,7.15V38a4.49,4.49,0,0,0-.06.73C74.22,40,74.22,41.88,74.22,42.74Z" transform="translate(-0.28)"/><path class="cls-5" d="M62,58.3a7.73,7.73,0,0,1-1.52-.12h-.24a5.87,5.87,0,0,1-3-1.13,15.2,15.2,0,0,1-1.43-1.23l1-1.09a15.32,15.32,0,0,0,1.27,1.15,4.74,4.74,0,0,0,2.41.8h.2a7.34,7.34,0,0,0,1.32.1Z" transform="translate(-0.28)"/><path class="cls-9" d="M67.73,56v-.75l-.5-.55a15.67,15.67,0,0,0,3-3.74l.83-2.33a2.39,2.39,0,0,1,.61-.92,5.39,5.39,0,0,0,1.55-3.46,1.35,1.35,0,0,0-.31-1h0a1.76,1.76,0,0,1-1.84-.82,6.22,6.22,0,0,1-.94-2,19.63,19.63,0,0,1-14.12-4,17.51,17.51,0,0,1-.59,2.15A11.51,11.51,0,0,1,52.81,43a1.55,1.55,0,0,1-1.86.33,1.45,1.45,0,0,0-.25.9,5.36,5.36,0,0,0,1.62,3.48,2.47,2.47,0,0,1,.61.92l.87,2.42a15.67,15.67,0,0,0,2.93,3.65l-.5.55V56a.74.74,0,0,1-.51-.2,16.75,16.75,0,0,1-3.26-4.14l-.92-2.51a.72.72,0,0,0-.21-.33,6.88,6.88,0,0,1-2.1-4.6A2.74,2.74,0,0,1,50,42.17a2,2,0,0,1,.57-.38.72.72,0,0,1,.8.11.51.51,0,0,0,.29.13A10.17,10.17,0,0,0,54,38.1a16.24,16.24,0,0,0,.59-2.28,1.22,1.22,0,0,1,.94-.94,1.31,1.31,0,0,1,1.16.25,18.09,18.09,0,0,0,13.49,3.75,1.12,1.12,0,0,1,1.25.88,4.77,4.77,0,0,0,.78,1.79c0,.08.21.29.42.2a.79.79,0,0,1,.64,0,2.92,2.92,0,0,1,.59.4,2.74,2.74,0,0,1,.78,2.1,6.92,6.92,0,0,1-2.05,4.63.66.66,0,0,0-.21.31l-.88,2.43a17.1,17.1,0,0,1-3.32,4.2A.74.74,0,0,1,67.73,56ZM56.07,36.11Z" transform="translate(-0.28)"/><path class="cls-5" d="M62,58.3V56.8a7.05,7.05,0,0,0,1.3-.1h.17a4.72,4.72,0,0,0,2.46-.82c.46-.36.9-.74,1.31-1.13l1,1.09c-.45.42-.93.84-1.43,1.23a6,6,0,0,1-3.09,1.1h-.23A8.25,8.25,0,0,1,62,58.3Z" transform="translate(-0.28)"/><path class="cls-9" d="M67.49,59.94a23.24,23.24,0,0,1-.48-4.4v-.23h1.47v.19a22.87,22.87,0,0,0,.44,4.12Z" transform="translate(-0.28)"/><path class="cls-9" d="M56.49,59.94l-1.43-.35a23.66,23.66,0,0,0,.44-4.2v-.16H57v.2A24.49,24.49,0,0,1,56.49,59.94Z" transform="translate(-0.28)"/></svg>