<svg id="Layer_1" data-name="Layer 1" xmlns="http://www.w3.org/2000/svg" viewBox="0 0 125.67 125.67"><defs><style>.cls-1{fill:#abd2ef;}.cls-2{fill:#fff;}.cls-3{fill:#e1f2fb;}.cls-4{fill:#aaaba6;}.cls-5{fill:#f8fbf9;}.cls-6{fill:#343434;}.cls-7{fill:#d0ebfa;}</style></defs><title>ADMIN</title><circle class="cls-1" cx="62.84" cy="62.84" r="62.84"/><path class="cls-2" d="M115.4,80.75l.41-.37h0a10.68,10.68,0,0,0,.64,2.29,4.21,4.21,0,0,0,.59.92l.11,0-4.07,3.79a2.62,2.62,0,0,1-3,.21l-4.23-3.94.27-.1a3.82,3.82,0,0,0,.58-.92,10.09,10.09,0,0,0,.65-2.29h0l.41.37a4.57,4.57,0,0,0,2.43,1.12l.2,0a6.51,6.51,0,0,0,1.16.11,5.09,5.09,0,0,0,.58,0l.58-.08.2,0A4.57,4.57,0,0,0,115.4,80.75Z" transform="translate(-16.78 -13.12)"/><path class="cls-3" d="M133.54,101.45H89.68A46.16,46.16,0,0,1,91.6,91,4.34,4.34,0,0,1,94,88.39l11.88-4.69,4.23,3.94a2.62,2.62,0,0,0,3-.21l4.07-3.79,12,4.75A4.34,4.34,0,0,1,131.62,91,46.16,46.16,0,0,1,133.54,101.45Z" transform="translate(-16.78 -13.12)"/><path class="cls-4" d="M102.25,66.28c.73,7.09,1.91,11,5.16,14.1h0a10.09,10.09,0,0,1-.65,2.29s-6.87.57-6.8-1.85c.22-7.27-4.59-15.41,2.45-23.31l1.32,3.5a36.76,36.76,0,0,1,11.7-.57C112.39,64.43,108.19,65.41,102.25,66.28Z" transform="translate(-16.78 -13.12)"/><path class="cls-4" d="M123.28,80.83c.07,2.42-6.8,1.85-6.8,1.85h0a10.68,10.68,0,0,1-.64-2.29h0a13.37,13.37,0,0,0,3.38-5.16,34.83,34.83,0,0,0,1.74-8.55c-1.58-.78-2.93-3.89-3.68-6,.7.1,1.44.22,2.22.35l1.33-3.54C127.89,65.39,123.07,73.54,123.28,80.83Z" transform="translate(-16.78 -13.12)"/><path class="cls-5" d="M121.15,52.87a2.28,2.28,0,0,1,.49,2.39l-.84,2.22L119.47,61c-.78-.13-1.52-.25-2.22-.35s-1.24-.16-1.84-.22a36.76,36.76,0,0,0-11.7.57l-1.32-3.5-.85-2.26a2.26,2.26,0,0,1,.49-2.39,14.62,14.62,0,0,1,19.12,0Z" transform="translate(-16.78 -13.12)"/><path class="cls-5" d="M120.93,66.67a34.83,34.83,0,0,1-1.74,8.55,13.37,13.37,0,0,1-3.38,5.16l-.41.37A4.57,4.57,0,0,1,113,81.87l-.2,0-.58.08a5.09,5.09,0,0,1-.58,0,6.51,6.51,0,0,1-1.16-.11l-.2,0a4.57,4.57,0,0,1-2.43-1.12l-.41-.37c-3.25-3.09-4.43-7-5.16-14.1,5.94-.87,10.14-1.85,13.16-5.83.6.06,1.2.14,1.84.22C118,62.78,119.35,65.89,120.93,66.67Z" transform="translate(-16.78 -13.12)"/><path class="cls-6" d="M111.62,82.49a7.42,7.42,0,0,1-1.24-.11l-.2,0a5.06,5.06,0,0,1-2.66-1.22l-.44-.4c-3.55-3.38-4.61-7.65-5.3-14.36a.22.22,0,0,1,0-.08.49.49,0,0,1,.43-.48c5.63-.82,9.85-1.71,12.83-5.64l.76.58c-3.11,4.1-7.55,5.13-13,5.94.78,7.18,2.06,10.58,5,13.35l.39.37a4.16,4.16,0,0,0,2.2,1l.2,0a5.64,5.64,0,0,0,1.08.1,4.44,4.44,0,0,0,.53,0l.55-.08.2,0a4.08,4.08,0,0,0,2.21-1c.12-.1.25-.22.38-.35a12.78,12.78,0,0,0,3.26-5,33.05,33.05,0,0,0,1.68-8.13c-1.55-1-2.82-3.83-3.62-6.09l.9-.32c1.11,3.11,2.36,5.2,3.44,5.73a.49.49,0,0,1,.27.48,35.58,35.58,0,0,1-1.77,8.67,13.73,13.73,0,0,1-3.5,5.33l-.42.39A5.06,5.06,0,0,1,113,82.34l-.2,0-.6.08A5.85,5.85,0,0,1,111.62,82.49Z" transform="translate(-16.78 -13.12)"/><path class="cls-6" d="M118.17,83.22c-.87,0-1.55,0-1.73-.06l.08-1c1.32.11,5,.17,6-.83a.69.69,0,0,0,.23-.54,34.56,34.56,0,0,1,.69-6.66c.89-5.38,1.82-11-3-16.38l.71-.64c5.17,5.78,4.2,11.57,3.27,17.17a34,34,0,0,0-.67,6.49,1.62,1.62,0,0,1-.54,1.25C122.2,83,119.83,83.22,118.17,83.22Z" transform="translate(-16.78 -13.12)"/><path class="cls-6" d="M105.05,83.22c-1.66,0-4-.18-5-1.15a1.62,1.62,0,0,1-.54-1.26,33.89,33.89,0,0,0-.67-6.48C97.86,68.74,96.9,63,102,57.2l.72.63c-4.83,5.42-3.91,11-3,16.34a34.75,34.75,0,0,1,.69,6.67.69.69,0,0,0,.23.54c1.06,1,4.73.93,6,.83l.08,1C106.6,83.17,105.92,83.22,105.05,83.22Z" transform="translate(-16.78 -13.12)"/><path class="cls-6" d="M111.46,88.48a3.09,3.09,0,0,1-1.59-.43L109.8,88l-4.23-3.94.65-.7,4.19,3.9a2.11,2.11,0,0,0,2.38-.18L117,83.15l.65.69-4.23,3.94A3,3,0,0,1,111.46,88.48Z" transform="translate(-16.78 -13.12)"/><path class="cls-6" d="M133.54,101.92H89.68a.48.48,0,0,1-.36-.15.49.49,0,0,1-.12-.37,46.57,46.57,0,0,1,2-10.54A4.86,4.86,0,0,1,93.82,88l12.05-4.75a3.86,3.86,0,0,0,.44-.72,9.63,9.63,0,0,0,.6-2.12l0-.07.93.2,0,.07a10.48,10.48,0,0,1-.66,2.33,4.81,4.81,0,0,1-.65,1,.52.52,0,0,1-.19.14L94.19,88.83a3.81,3.81,0,0,0-2.13,2.33A44.76,44.76,0,0,0,90.2,101H133a44.76,44.76,0,0,0-1.86-9.81A3.87,3.87,0,0,0,129,88.82L116.88,84a.52.52,0,0,1-.19-.14,4.76,4.76,0,0,1-.65-1,10.7,10.7,0,0,1-.68-2.39l.94-.2a9.47,9.47,0,0,0,.61,2.19,3.86,3.86,0,0,0,.44.72l12,4.74a4.85,4.85,0,0,1,2.69,2.92,46.57,46.57,0,0,1,2,10.54.49.49,0,0,1-.12.37A.48.48,0,0,1,133.54,101.92Z" transform="translate(-16.78 -13.12)"/><path class="cls-6" d="M103.71,61.5a.48.48,0,0,1-.45-.31l-2.17-5.76a2.75,2.75,0,0,1,.6-2.89,15.06,15.06,0,0,1,19.8,0,2.75,2.75,0,0,1,.6,2.89l-2.17,5.76a.49.49,0,0,1-.53.3c-.77-.13-1.51-.24-2.21-.34s-1.23-.17-1.82-.23h0a36.54,36.54,0,0,0-11.56.57ZM115.46,60c.6.07,1.22.14,1.85.23l1.85.28,2-5.39a1.78,1.78,0,0,0-.38-1.88,14.14,14.14,0,0,0-18.44,0,1.8,1.8,0,0,0-.39,1.88l2,5.39A37.1,37.1,0,0,1,115.46,60Z" transform="translate(-16.78 -13.12)"/><rect class="cls-6" x="94.33" y="39.33" width="0.95" height="5.38"/><rect class="cls-6" x="92.25" y="41.55" width="5.12" height="0.95"/><path class="cls-3" d="M39.65,101.63h-9a67.67,67.67,0,0,1,2.19-12.84,4.89,4.89,0,0,1,2.71-2.89l13.17-5.21c5.46,3,8.61,2.9,14.12,0l13.25,5.18a4.84,4.84,0,0,1,2.73,2.89A66.42,66.42,0,0,1,81,101.63H39.65Z" transform="translate(-16.78 -13.12)"/><path class="cls-2" d="M49.57,75.44h0a17.11,17.11,0,0,1-3.36-4L45.27,69a1.79,1.79,0,0,0-.44-.64c-1.64-1.42-2.76-4.51-1.4-5.68a1.51,1.51,0,0,1,.42-.27s.83.7,1.47,0A11.23,11.23,0,0,0,48,58.15a16.12,16.12,0,0,0,.67-2.44c0-.19.24-.31.43-.36a.69.69,0,0,1,.56.12,21.05,21.05,0,0,0,15.19,4,.4.4,0,0,1,.45.3,5.47,5.47,0,0,0,1,2.11,1.14,1.14,0,0,0,1.45.45,2,2,0,0,1,.44.28c1.34,1.19.22,4.25-1.41,5.67a1.57,1.57,0,0,0-.44.64l-1,2.47a16.64,16.64,0,0,1-3.36,4,16.34,16.34,0,0,1-1.48,1.21,6,6,0,0,1-3,1l-.23,0a9.75,9.75,0,0,1-1.52.11,9.57,9.57,0,0,1-1.52-.11l-.23,0a6,6,0,0,1-3-1C50.56,76.29,50.06,75.88,49.57,75.44Z" transform="translate(-16.78 -13.12)"/><path class="cls-4" d="M67.68,62.36a1.14,1.14,0,0,1-1.45-.45,5.47,5.47,0,0,1-1-2.11.4.4,0,0,0-.45-.3,21.05,21.05,0,0,1-15.19-4,.69.69,0,0,0-.56-.12c-.19,0-.4.17-.43.36A16.12,16.12,0,0,1,48,58.15a11.23,11.23,0,0,1-2.64,4.26c-.64.65-1.47,0-1.47,0a1.51,1.51,0,0,0-.42.27c0-1.19-.1-3.92-.16-4.86,0-3.2.85-9.73,7.08-9.74,2,0,1.43-1.3,5.25-1.3,11.7,0,12.67,7.49,12.67,11-.12.87-.14,3.58-.15,4.87h0A2,2,0,0,0,67.68,62.36Z" transform="translate(-16.78 -13.12)"/><path class="cls-2" d="M62.54,80.62l.3.11c-5.51,2.86-8.66,2.92-14.12,0l.19-.07a30,30,0,0,0,.66-5.18c.49.44,1,.85,1.48,1.21a6,6,0,0,0,3,1l.23,0a9.57,9.57,0,0,0,1.52.11,9.75,9.75,0,0,0,1.52-.11l.23,0a6,6,0,0,0,3-1A16.34,16.34,0,0,0,62,75.44,31.7,31.7,0,0,0,62.54,80.62Z" transform="translate(-16.78 -13.12)"/><rect class="cls-6" x="29.72" y="76.97" width="1.11" height="6.63"/><rect class="cls-6" x="26.86" y="79.75" width="6.81" height="1.08"/><path class="cls-6" d="M68.68,62.64H67.57c0-1.17,0-4,.15-4.94a10.82,10.82,0,0,0-1.85-6.47c-1.93-2.63-5.38-4-10.25-4h0a5.4,5.4,0,0,0-3.3.73,3.45,3.45,0,0,1-1.95.57c-5.91,0-6.53,6.44-6.53,9.2.07.9.13,3.54.16,4.81l-.55.05h-.55c0-1.18-.1-3.91-.17-4.82,0-2.44.54-10.3,7.64-10.32a2.3,2.3,0,0,0,1.37-.42,6.51,6.51,0,0,1,3.88-.88h0c5.24,0,9,1.49,11.15,4.41a11.85,11.85,0,0,1,2,7.17C68.7,58.74,68.68,61.74,68.68,62.64Z" transform="translate(-16.78 -13.12)"/><path class="cls-6" d="M55.77,78.31a9.45,9.45,0,0,1-1.61-.12l-.23,0a6.48,6.48,0,0,1-3.21-1.08,18,18,0,0,1-1.52-1.24,17.44,17.44,0,0,1-3.48-4.16l0-.07-.94-2.48a1,1,0,0,0-.3-.42,6.55,6.55,0,0,1-2.18-4.53,2.27,2.27,0,0,1,1.35-2.31.55.55,0,0,1,.59.08c.07.06.45.34.71.09A10.75,10.75,0,0,0,47.44,58a15.38,15.38,0,0,0,.64-2.36,1.05,1.05,0,0,1,.86-.78A1.2,1.2,0,0,1,50,55,20.53,20.53,0,0,0,64.73,59a1,1,0,0,1,1.07.72,5.19,5.19,0,0,0,.88,1.91.61.61,0,0,0,.76.28.55.55,0,0,1,.47,0,1.94,1.94,0,0,1,.59.38,2.55,2.55,0,0,1,.77,2,6.67,6.67,0,0,1-2.19,4.51,1,1,0,0,0-.29.41l-1,2.48,0,.07a17.41,17.41,0,0,1-3.47,4.16,18.78,18.78,0,0,1-1.52,1.24,6.54,6.54,0,0,1-3.22,1.08l-.24,0A9.2,9.2,0,0,1,55.77,78.31ZM46.72,71.2A16.52,16.52,0,0,0,50,75.05a18,18,0,0,0,1.43,1.17,5.51,5.51,0,0,0,2.72.87l.22,0a9.55,9.55,0,0,0,2.89,0l.22,0a5.51,5.51,0,0,0,2.72-.87,17,17,0,0,0,1.43-1.17,16.64,16.64,0,0,0,3.24-3.85l.93-2.44a2,2,0,0,1,.59-.85,5.56,5.56,0,0,0,1.82-3.71A1.52,1.52,0,0,0,67.75,63L67.63,63a1.72,1.72,0,0,1-1.85-.73,6,6,0,0,1-1-2.17,21.71,21.71,0,0,1-15.47-4.16.11.11,0,0,0-.08,0h0a16.12,16.12,0,0,1-.68,2.44,11.62,11.62,0,0,1-2.76,4.45,1.54,1.54,0,0,1-1.88.22l0,0a1.48,1.48,0,0,0-.43,1.15,5.65,5.65,0,0,0,1.82,3.73,2.17,2.17,0,0,1,.6.85ZM64.89,60Z" transform="translate(-16.78 -13.12)"/><path class="cls-6" d="M81,102.17H30.65a.52.52,0,0,1-.4-.18.53.53,0,0,1-.15-.41,66.86,66.86,0,0,1,2.22-13,5.4,5.4,0,0,1,3-3.21l13.11-5.18A30.53,30.53,0,0,0,49,75.41l1.11,0a31.14,31.14,0,0,1-.68,5.31.56.56,0,0,1-.33.37L35.76,86.4A4.28,4.28,0,0,0,33.37,89a64.64,64.64,0,0,0-2.11,12.13H80.4A66.79,66.79,0,0,0,78.3,89a4.36,4.36,0,0,0-2.43-2.57L62.34,81.12a.55.55,0,0,1-.34-.37,32.42,32.42,0,0,1-.59-5.28l1.11,0a32.79,32.79,0,0,0,.5,4.78h0L76.3,85.41a5.44,5.44,0,0,1,3,3.22,68.06,68.06,0,0,1,2.21,13,.53.53,0,0,1-.15.41A.52.52,0,0,1,81,102.17Z" transform="translate(-16.78 -13.12)"/><path class="cls-6" d="M55.74,83.45c-2.25,0-4.48-.76-7.29-2.28l.54-1c5.24,2.84,8.16,2.85,13.58,0l.61.91-.11,0C60.21,82.7,58,83.45,55.74,83.45Z" transform="translate(-16.78 -13.12)"/><polygon class="cls-6" points="54.67 88.58 53.93 83.45 55.02 83.3 55.77 88.43 54.67 88.58"/><polygon class="cls-6" points="23.42 88.58 22.32 88.43 23.07 83.3 24.17 83.45 23.42 88.58"/><ellipse class="cls-1" cx="61.99" cy="62.84" rx="61.71" ry="62.84"/><path class="cls-7" d="M118.09,101.43V108a3.92,3.92,0,0,1-3.55,3.7H43a3.92,3.92,0,0,1-3.55-3.7v-6.52H71l2.51,4.14H84l2.51-4.14h31.56Z" transform="translate(-16.78 -13.12)"/><path class="cls-3" d="M112,55.94v45.49H86.53L84,105.57H73.52L71,101.43H45.52V55.94a3.8,3.8,0,0,1,3.54-4H67.22c0,1.2.09,3,.11,3.93-1.26,1.15-.22,4.18,1.3,5.57A1.51,1.51,0,0,1,69,62l.88,2.42A16.36,16.36,0,0,0,73,68.39h0a25.82,25.82,0,0,1-.47,4.49L58.84,78.46a4.82,4.82,0,0,0-2.64,2.93,104.7,104.7,0,0,0-2.45,15.53h50a104.63,104.63,0,0,0-2.44-15.51,4.88,4.88,0,0,0-2.67-3L85,72.88a25.82,25.82,0,0,1-.47-4.49h0a16.17,16.17,0,0,0,3.12-3.94L88.5,62a1.64,1.64,0,0,1,.41-.62C90.42,60,91.46,57,90.22,55.85c0-1,0-2.8.08-4l.47,0h17.71A3.81,3.81,0,0,1,112,55.94Z" transform="translate(-16.78 -13.12)"/><path class="cls-2" d="M92.21,83.43a2.09,2.09,0,0,0-.78.09,2.45,2.45,0,0,0-1.66,3,2.41,2.41,0,0,0,3,1.68,2.45,2.45,0,0,0,1.66-3A2.41,2.41,0,0,0,92.21,83.43Zm11.58,13.49h-50A104.7,104.7,0,0,1,56.2,81.39a4.82,4.82,0,0,1,2.64-2.93l13.72-5.58L77.08,80a2,2,0,0,0,1.69.93A2,2,0,0,0,80.45,80L85,72.88l13.7,5.58a4.88,4.88,0,0,1,2.67,3A104.63,104.63,0,0,1,103.79,96.92Z" transform="translate(-16.78 -13.12)"/><path class="cls-2" d="M92.21,83.43a2.41,2.41,0,0,1,2.21,1.77,2.45,2.45,0,0,1-1.66,3,2.41,2.41,0,0,1-3-1.68,2.45,2.45,0,0,1,1.66-3A2.09,2.09,0,0,1,92.21,83.43Z" transform="translate(-16.78 -13.12)"/><path class="cls-2" d="M90.22,55.85c1.24,1.17.2,4.17-1.31,5.56a1.64,1.64,0,0,0-.41.62l-.87,2.42a16.17,16.17,0,0,1-3.12,3.94h0a16.24,16.24,0,0,1-1.37,1.18,5.33,5.33,0,0,1-2.75,1l-.21,0a9.09,9.09,0,0,1-2.82,0l-.21,0a5.3,5.3,0,0,1-2.75-1A16.24,16.24,0,0,1,73,68.39h0a16.36,16.36,0,0,1-3.11-3.94L69,62a1.51,1.51,0,0,0-.4-.62C67.11,60,66.07,57,67.33,55.84a1.77,1.77,0,0,1,.39-.26s.77.68,1.36.05a11.08,11.08,0,0,0,2.45-4.17,15.89,15.89,0,0,0,.62-2.4.5.5,0,0,1,.4-.34.58.58,0,0,1,.52.11,18.8,18.8,0,0,0,14.08,3.94.38.38,0,0,1,.42.3,5.75,5.75,0,0,0,.9,2.07,1,1,0,0,0,1.34.44A1.46,1.46,0,0,1,90.22,55.85Z" transform="translate(-16.78 -13.12)"/><path class="cls-4" d="M67.22,51.91c0-.34,0-.62,0-.82,0-3.15.79-9.53,6.57-9.55,1.83,0,1.32-1.27,4.86-1.27,10.85,0,11.75,7.33,11.75,10.82a6.94,6.94,0,0,0-.06.8c-.06,1.16-.07,3-.08,4a1.46,1.46,0,0,0-.41-.27,1,1,0,0,1-1.34-.44,5.75,5.75,0,0,1-.9-2.07.38.38,0,0,0-.42-.3,18.8,18.8,0,0,1-14.08-3.94.58.58,0,0,0-.52-.11.5.5,0,0,0-.4.34,15.89,15.89,0,0,1-.62,2.4,11.08,11.08,0,0,1-2.45,4.17c-.59.63-1.36-.05-1.36-.05a1.77,1.77,0,0,0-.39.26C67.31,54.94,67.27,53.11,67.22,51.91Z" transform="translate(-16.78 -13.12)"/><path class="cls-2" d="M85,72.88,80.45,80a2,2,0,0,1-1.68.93A2,2,0,0,1,77.08,80l-4.52-7.1A25.82,25.82,0,0,0,73,68.39a16.24,16.24,0,0,0,1.37,1.18,5.3,5.3,0,0,0,2.75,1l.21,0a9.09,9.09,0,0,0,2.82,0l.21,0a5.33,5.33,0,0,0,2.75-1,16.24,16.24,0,0,0,1.37-1.18A25.82,25.82,0,0,0,85,72.88Z" transform="translate(-16.78 -13.12)"/><path class="cls-6" d="M103.05,97a105.57,105.57,0,0,0-2.4-15.34,4.14,4.14,0,0,0-2.26-2.5L85.27,73.81l-4.2,6.58a2.69,2.69,0,0,1-2.3,1.27,2.72,2.72,0,0,1-2.31-1.27l-4.19-6.58L59.11,79.16a4.12,4.12,0,0,0-2.22,2.47A103.43,103.43,0,0,0,54.49,97L53,96.86a103.24,103.24,0,0,1,2.48-15.7,5.59,5.59,0,0,1,3-3.39l13.73-5.58a.73.73,0,0,1,.9.28l4.52,7.1a1.3,1.3,0,0,0,2.13,0l4.53-7.11a.72.72,0,0,1,.89-.28L99,77.77a5.56,5.56,0,0,1,3.09,3.4,103.05,103.05,0,0,1,2.48,15.69Z" transform="translate(-16.78 -13.12)"/><path class="cls-6" d="M112.76,101.43h-1.47V55.94a3.07,3.07,0,0,0-2.81-3.28H90.77v-1.5h17.71a4.56,4.56,0,0,1,4.28,4.78Z" transform="translate(-16.78 -13.12)"/><path class="cls-6" d="M46.25,101.43H44.78V55.94a4.56,4.56,0,0,1,4.28-4.78h18.3v1.5H49.06a3.07,3.07,0,0,0-2.81,3.28Z" transform="translate(-16.78 -13.12)"/><path class="cls-6" d="M114.54,112.4H43a4.68,4.68,0,0,1-4.28-4.46v-6.51a.74.74,0,0,1,.73-.75H71a.75.75,0,0,1,0,1.49H40.19v5.77a3.17,3.17,0,0,0,2.81,3h71.54a3.17,3.17,0,0,0,2.81-3v-5.77H86.53a.75.75,0,0,1,0-1.49h31.56a.74.74,0,0,1,.73.75v6.51A4.68,4.68,0,0,1,114.54,112.4Z" transform="translate(-16.78 -13.12)"/><path class="cls-6" d="M84,106.32H73.52a.73.73,0,0,1-.63-.35l-2.51-4.15a.76.76,0,0,1,.24-1,.74.74,0,0,1,1,.24l2.29,3.79h9.68L85.9,101a.74.74,0,0,1,1-.24.76.76,0,0,1,.24,1L84.65,106A.74.74,0,0,1,84,106.32Z" transform="translate(-16.78 -13.12)"/><path class="cls-6" d="M91,55.86H89.49c0-.91,0-2.79.07-4,0-.33,0-.61.06-.81A10.83,10.83,0,0,0,88,44.8C86.2,42.29,83.07,41,78.63,41h0a4.62,4.62,0,0,0-2.94.68,3.32,3.32,0,0,1-1.92.59c-5.28,0-5.84,6.16-5.83,8.8,0,.15,0,.45,0,.79,0,1.2.09,3,.11,3.94l-1.47,0c0-.89-.07-2.72-.11-3.91,0-.33,0-.61,0-.8,0-2.46.5-10.33,7.29-10.35a1.77,1.77,0,0,0,1.16-.37,5.94,5.94,0,0,1,3.71-.9h0c4.94,0,8.48,1.49,10.52,4.42a12.25,12.25,0,0,1,1.94,7.15v.1a5.75,5.75,0,0,0-.06.73C91,53.1,91,55,91,55.86Z" transform="translate(-16.78 -13.12)"/><path class="cls-6" d="M78.77,71.42a8.52,8.52,0,0,1-1.52-.12l-.24,0A5.9,5.9,0,0,1,74,70.17a17.11,17.11,0,0,1-1.43-1.23l1-1.09A16.19,16.19,0,0,0,74.84,69a4.77,4.77,0,0,0,2.41.8l.2,0a7.62,7.62,0,0,0,1.32.1Z" transform="translate(-16.78 -13.12)"/><path class="cls-6" d="M84.51,69.14v-.75l-.5-.55a15.75,15.75,0,0,0,3-3.74l.83-2.33a2.36,2.36,0,0,1,.61-.92A5.37,5.37,0,0,0,90,57.39a1.34,1.34,0,0,0-.31-1h0a1.75,1.75,0,0,1-1.84-.82,6.25,6.25,0,0,1-.94-2,19.61,19.61,0,0,1-14.12-4,17.33,17.33,0,0,1-.59,2.15,11.5,11.5,0,0,1-2.61,4.43,1.55,1.55,0,0,1-1.86.33,1.49,1.49,0,0,0-.25.9,5.36,5.36,0,0,0,1.62,3.48,2.47,2.47,0,0,1,.61.92l.87,2.42a15.72,15.72,0,0,0,2.93,3.65l-.5.55v.75a.74.74,0,0,1-.51-.2,17,17,0,0,1-3.26-4.14l-.92-2.51a.72.72,0,0,0-.21-.33,6.88,6.88,0,0,1-2.1-4.6,2.74,2.74,0,0,1,.81-2.08,2.1,2.1,0,0,1,.57-.38.72.72,0,0,1,.8.11.51.51,0,0,0,.29.13,10.2,10.2,0,0,0,2.34-3.93,15.84,15.84,0,0,0,.59-2.28,1.21,1.21,0,0,1,.94-.94,1.31,1.31,0,0,1,1.16.25A18.08,18.08,0,0,0,87,52a1.12,1.12,0,0,1,1.25.88,4.7,4.7,0,0,0,.78,1.79c.05.08.21.29.42.2a.79.79,0,0,1,.64,0,2.67,2.67,0,0,1,.59.4,2.75,2.75,0,0,1,.78,2.1A6.91,6.91,0,0,1,89.41,62a.72.72,0,0,0-.21.31l-.88,2.43A17.11,17.11,0,0,1,85,68.94.74.74,0,0,1,84.51,69.14Zm2.34-15.91Zm-14-4h0Z" transform="translate(-16.78 -13.12)"/><path class="cls-6" d="M78.77,71.42v-1.5a7.23,7.23,0,0,0,1.3-.1l.17,0A4.75,4.75,0,0,0,82.7,69c.46-.36.9-.74,1.31-1.13l1,1.09c-.45.42-.93.84-1.43,1.23a6,6,0,0,1-3.09,1.1l-.23,0A8.21,8.21,0,0,1,78.77,71.42Z" transform="translate(-16.78 -13.12)"/><path class="cls-6" d="M84.27,73.06a23.89,23.89,0,0,1-.48-4.4v-.23l1.47,0v.19a22.72,22.72,0,0,0,.44,4.12Z" transform="translate(-16.78 -13.12)"/><path class="cls-6" d="M73.27,73.06l-1.43-.35a23.77,23.77,0,0,0,.44-4.2v-.16l1.47,0v.2A24.59,24.59,0,0,1,73.27,73.06Z" transform="translate(-16.78 -13.12)"/></svg>