<svg id="Layer_1" data-name="Layer 1" xmlns="http://www.w3.org/2000/svg" viewBox="0 0 81.41 56.65"><defs><style>.cls-1{fill:#343434;}.cls-2{fill:#3a9cd7;}</style></defs><title>analytics</title><g id="g10697"><path id="path12930" class="cls-1" d="M35.14,47.09a1.3,1.3,0,0,0-1.3,1.3v54.05a1.3,1.3,0,0,0,1.3,1.3h78.8a1.3,1.3,0,0,0,1.3-1.3v-54a1.3,1.3,0,0,0-1.3-1.3Zm1.3,2.6h76.2v51.45H36.44Z" transform="translate(-33.84 -47.09)"/><path id="path10700" class="cls-2" d="M51.91,57.48a1.31,1.31,0,0,0-1.22,1L45.8,81.23h-7a1.3,1.3,0,0,0,0,2.6h8.09a1.3,1.3,0,0,0,1.27-1L50.8,70.39l.25,21.48a1.3,1.3,0,0,0,2.57.29l2-8.33h7.42a1.3,1.3,0,0,0,1.15-.69l2.61-4.92-.26,10.56a1.31,1.31,0,0,0,1.28,1.33,1.28,1.28,0,0,0,1.25-.87L71,83.83H81.31a1.31,1.31,0,0,0,1.26-1l2.79-10.34L84.92,92a1.3,1.3,0,0,0,2.56.38l2.38-8.57h9.81a1.3,1.3,0,0,0,1.16-.71l3-5.89L103.67,87a1.3,1.3,0,0,0,2.44.65l2.09-3.84h2.07a1.3,1.3,0,1,0,0-2.6h-2.89a1.33,1.33,0,0,0-1,.53l.2-10.1A1.31,1.31,0,0,0,104.1,71L98.87,81.23h-10a1.3,1.3,0,0,0-1.11.63l.45-20a1.3,1.3,0,0,0-2.56-.37L80.31,81.23H70a1.34,1.34,0,0,0-.68.19l.21-8.67a1.32,1.32,0,0,0-1.28-1.34,1.3,1.3,0,0,0-1.17.69l-4.84,9.13H54.61a1.28,1.28,0,0,0-1.07.57l-.27-23a1.31,1.31,0,0,0-1.33-1.28Z" transform="translate(-33.84 -47.09)"/></g></svg>