<svg id="Layer_1" data-name="Layer 1" xmlns="http://www.w3.org/2000/svg" viewBox="0 0 116.02 116.02"><defs><style>.cls-1{fill:#abd2ef;}.cls-2{fill:#e1f2fb;}.cls-3{fill:#fff;}.cls-4{fill:#aaaba6;}.cls-5{fill:#343434;}.cls-6{fill:#f8fbf9;}</style></defs><title>drs</title><circle class="cls-1" cx="58.01" cy="58.01" r="58.01"/><path class="cls-2" d="M104.69,82.25l6.12,2.27a3.57,3.57,0,0,1,2,2.09,62.83,62.83,0,0,1,1.62,10.26h-37a62.57,62.57,0,0,1,1.63-10.26,3.57,3.57,0,0,1,2-2.09l8.58-3.19,1.67-.61,3,2a2.9,2.9,0,0,0,3.22,0l3-2,1.74.64ZM88.45,88.79a1.7,1.7,0,1,0,1.68,1.7A1.69,1.69,0,0,0,88.45,88.79Z" transform="translate(-16.99 -15.31)"/><path class="cls-3" d="M100.36,61.5c.49,1.45,1.83,5,3.46,5.75-.62,5.44-1.62,8.49-4.31,10.9-.12.11-.23.21-.35.3a3.9,3.9,0,0,1-2,.89l-.17,0-.49.06a3.7,3.7,0,0,1-.49,0,6.35,6.35,0,0,1-1-.08l-.17,0a4,4,0,0,1-2.06-.89l-.34-.3c-2.74-2.45-3.73-5.57-4.35-11.21,5.44-.75,9.15-1.6,11.74-5.51a.33.33,0,0,1,.3-.13A.28.28,0,0,1,100.36,61.5Z" transform="translate(-16.99 -15.31)"/><path class="cls-3" d="M94.35,82.73l-3-2a5.06,5.06,0,0,0,1-2.55l0,0,.34.3a4,4,0,0,0,2.06.89l.17,0a6.35,6.35,0,0,0,1,.08,3.7,3.7,0,0,0,.49,0l.49-.06.17,0a3.9,3.9,0,0,0,2-.89c.12-.09.23-.19.35-.3v0a5.15,5.15,0,0,0,1,2.55l-3,2A2.9,2.9,0,0,1,94.35,82.73Z" transform="translate(-16.99 -15.31)"/><path class="cls-4" d="M96,56.42c2.93,0,4.82.83,6,1.95h0c8.4,6.77,3.62,17.67,3.81,20.13.15,1.93-3.51,2.85-3.51,2.85l-1.74-.64a5.15,5.15,0,0,1-1-2.55v0c2.69-2.41,3.69-5.46,4.31-10.9-1.63-.76-3-4.3-3.46-5.75a.28.28,0,0,0-.25-.2.33.33,0,0,0-.3.13c-2.59,3.91-6.3,4.76-11.74,5.51.62,5.64,1.61,8.76,4.35,11.21l0,0a5.06,5.06,0,0,1-1,2.55l-1.67.61c-.62-.16-3.72-1.08-3.58-2.82.19-2.46-4.59-13.36,3.8-20.13h0A8.58,8.58,0,0,1,96,56.42Z" transform="translate(-16.99 -15.31)"/><path class="cls-2" d="M88.45,92.19a1.7,1.7,0,1,1,1.68-1.7A1.69,1.69,0,0,1,88.45,92.19Z" transform="translate(-16.99 -15.31)"/><path class="cls-5" d="M102,58.74h0a.39.39,0,0,1-.27-.11A8.24,8.24,0,0,0,96,56.8a8.28,8.28,0,0,0-5.76,1.83.39.39,0,0,1-.27.11v-.37l-.27-.27A9.07,9.07,0,0,1,96,56.05a9,9,0,0,1,6.3,2.05l-.27.27Z" transform="translate(-16.99 -15.31)"/><path class="cls-5" d="M114.46,97.24h-37a.36.36,0,0,1-.28-.12.38.38,0,0,1-.11-.28,63.18,63.18,0,0,1,1.65-10.35A4,4,0,0,1,81,84.18L91.13,80.4A4.82,4.82,0,0,0,92,78.1l.76.14A5.28,5.28,0,0,1,91.67,81a.42.42,0,0,1-.16.11L81.26,84.87a3.22,3.22,0,0,0-1.81,1.86,62.71,62.71,0,0,0-1.56,9.77H114a61.2,61.2,0,0,0-1.57-9.77,3.16,3.16,0,0,0-1.81-1.86l-10.24-3.81a.36.36,0,0,1-.16-.11,5.34,5.34,0,0,1-1.12-2.69l.76-.17h0a4.74,4.74,0,0,0,.9,2.3L111,84.18a4,4,0,0,1,2.26,2.31,62.36,62.36,0,0,1,1.64,10.35.37.37,0,0,1-.1.28A.38.38,0,0,1,114.46,97.24Z" transform="translate(-16.99 -15.31)"/><path class="cls-5" d="M96,79.83a8.22,8.22,0,0,1-1-.09l-.17,0a4.36,4.36,0,0,1-2.24-1l-.37-.32c-3-2.67-3.89-6.21-4.47-11.41v-.07a.38.38,0,0,1,.35-.37c5.26-.72,8.9-1.49,11.45-5.33a.71.71,0,0,1,.68-.31.67.67,0,0,1,.57.46c1,3,2.22,5,3.26,5.52a.38.38,0,0,1,.22.34v.06c-.58,5-1.49,8.47-4.44,11.11-.11.11-.23.21-.35.31a4.4,4.4,0,0,1-2.25,1l-.17,0-.51.06C96.33,79.82,96.17,79.82,96,79.83ZM88.49,67.26c.66,5.71,1.74,8.42,4.19,10.62l.34.29a3.57,3.57,0,0,0,1.86.81l.17,0a4.87,4.87,0,0,0,.91.08,3.32,3.32,0,0,0,.46,0l.46-.06.17,0a3.57,3.57,0,0,0,1.87-.82l.32-.28c2.42-2.16,3.52-4.91,4.17-10.43-1.54-1-2.74-3.87-3.36-5.68C97.38,65.67,93.56,66.55,88.49,67.26Zm11.65-5.63Zm-.15,0h0Z" transform="translate(-16.99 -15.31)"/><path class="cls-5" d="M102.4,81.72l-.2-.72c.93-.23,3.32-1.14,3.22-2.46a12.16,12.16,0,0,1,.37-2.64c.85-4.2,2.42-12-4-17.24l.48-.59,0,0h0c6.8,5.51,5.17,13.59,4.3,17.94a12,12,0,0,0-.36,2.45C106.37,80.69,102.56,81.68,102.4,81.72Z" transform="translate(-16.99 -15.31)"/><path class="cls-5" d="M89.7,81.72l-.1,0c-.95-.25-4-1.23-3.87-3.2A11.88,11.88,0,0,0,85.37,76c-.88-4.36-2.51-12.45,4.3-18l.54.54,0,0c-6.45,5.2-4.88,13-4,17.22a11.69,11.69,0,0,1,.37,2.65c-.09,1.2,2,2.1,3.3,2.44l.11,0Z" transform="translate(-16.99 -15.31)"/><path class="cls-5" d="M96,83.59A3.27,3.27,0,0,1,94.13,83l-3-2,.45-.61,3,2a2.49,2.49,0,0,0,2.77,0l3-2,.45.61-3,2A3.28,3.28,0,0,1,96,83.59Z" transform="translate(-16.99 -15.31)"/><path class="cls-5" d="M87.15,89.2a10.5,10.5,0,0,1-.51-7l.75.19a9.91,9.91,0,0,0,.48,6.5Z" transform="translate(-16.99 -15.31)"/><path class="cls-5" d="M88.45,92.56a2.07,2.07,0,1,1,2.07-2.07A2.07,2.07,0,0,1,88.45,92.56Zm0-3.4a1.33,1.33,0,1,0,1.29,1.33A1.31,1.31,0,0,0,88.45,89.16Z" transform="translate(-16.99 -15.31)"/><path class="cls-5" d="M105.21,86.23l-.77-.11a9.84,9.84,0,0,0-.13-3.78l.76-.18A10.69,10.69,0,0,1,105.21,86.23Z" transform="translate(-16.99 -15.31)"/><path class="cls-5" d="M104.9,93.75a1.54,1.54,0,0,1-.43,0,.37.37,0,0,1-.24-.16.36.36,0,0,1,0-.28l.17-.69a.39.39,0,0,1,.47-.28.37.37,0,0,1,.29.45L105,93a1.09,1.09,0,0,0,.45-.15.54.54,0,0,0,.27-.36l.55-3.82a2.64,2.64,0,0,0,0-.28,1.8,1.8,0,0,0-1.54-1.84,2,2,0,0,0-2.38,1.26l-1.32,3.66a.53.53,0,0,0,.08.42.92.92,0,0,0,.33.32l.06-.26a.39.39,0,0,1,.47-.28.37.37,0,0,1,.29.45l-.17.69a.4.4,0,0,1-.47.28,1.86,1.86,0,0,1-1.18-.83,1.22,1.22,0,0,1-.15-1l1.33-3.69A2.72,2.72,0,0,1,105,85.83a2.55,2.55,0,0,1,2.15,2.56,2.31,2.31,0,0,1,0,.37l-.55,3.85a1.33,1.33,0,0,1-.61.86A2,2,0,0,1,104.9,93.75Z" transform="translate(-16.99 -15.31)"/><path class="cls-6" d="M58,81.72l-4,2.74a2,2,0,0,1-1,.29,1.92,1.92,0,0,1-1-.28l-4.18-2.75a22.64,22.64,0,0,0,.47-3.91,13,13,0,0,0,1.11.93,4.39,4.39,0,0,0,2.25.76l.17,0a8.31,8.31,0,0,0,2.3,0l.17,0a4.39,4.39,0,0,0,2.25-.76,13.34,13.34,0,0,0,1.11-.93A23.09,23.09,0,0,0,58,81.72Z" transform="translate(-16.99 -15.31)"/><path class="cls-2" d="M46.86,88.76a1.66,1.66,0,1,1-1.68,1.65,1.64,1.64,0,0,1,.74-1.36A1.66,1.66,0,0,1,46.86,88.76Z" transform="translate(-16.99 -15.31)"/><path class="cls-2" d="M45.92,89.05a1.64,1.64,0,0,0-.74,1.36,1.69,1.69,0,1,0,.74-1.36Zm-7.78-3.63,9.63-3.7L52,84.47a1.92,1.92,0,0,0,1,.28,2,2,0,0,0,1-.29l4-2.74,9.77,3.7a3.49,3.49,0,0,1,2,2,58.36,58.36,0,0,1,1.62,10H34.51a60.25,60.25,0,0,1,1.62-10A3.48,3.48,0,0,1,38.14,85.42Z" transform="translate(-16.99 -15.31)"/><path class="cls-6" d="M43.91,67.65s.62.54,1.11,0a8.57,8.57,0,0,0,2-3.3,11.26,11.26,0,0,0,.51-1.9.43.43,0,0,1,.33-.28.52.52,0,0,1,.42.09,15.62,15.62,0,0,0,11.49,3.13.31.31,0,0,1,.34.24,4.42,4.42,0,0,0,.73,1.64.86.86,0,0,0,1.1.35,1,1,0,0,1,.32.21c1,.92.18,3.31-1.06,4.41a1.25,1.25,0,0,0-.33.49l-.71,1.93a13.41,13.41,0,0,1-2.54,3.12h0a13.34,13.34,0,0,1-1.11.93,4.39,4.39,0,0,1-2.25.76l-.17,0a8.31,8.31,0,0,1-2.3,0l-.17,0a4.39,4.39,0,0,1-2.25-.76,13,13,0,0,1-1.11-.93h0a13.21,13.21,0,0,1-2.55-3.12L45,72.76a1.25,1.25,0,0,0-.33-.49c-1.24-1.11-2.09-3.51-1-4.42A1.1,1.1,0,0,1,43.91,67.65Z" transform="translate(-16.99 -15.31)"/><path class="cls-4" d="M61.93,67.65a.86.86,0,0,1-1.1-.35,4.42,4.42,0,0,1-.73-1.64.31.31,0,0,0-.34-.24,15.62,15.62,0,0,1-11.49-3.13.52.52,0,0,0-.42-.09.43.43,0,0,0-.33.28,11.26,11.26,0,0,1-.51,1.9,8.57,8.57,0,0,1-2,3.3c-.49.51-1.11,0-1.11,0a1.1,1.1,0,0,0-.31.2h0c0-.93-.07-3-.12-3.78,0-2.49.64-7.56,5.35-7.57,1.49,0,1.08-1,4-1,8.84,0,9.57,5.82,9.57,8.58-.08.68-.1,2.78-.11,3.79h0A1,1,0,0,0,61.93,67.65Z" transform="translate(-16.99 -15.31)"/><path class="cls-5" d="M71.41,97.8H34.51a.41.41,0,0,1-.29-.13.4.4,0,0,1-.1-.29,59.81,59.81,0,0,1,1.65-10.07A3.84,3.84,0,0,1,38,85.06l9.63-3.7a.36.36,0,0,1,.35,0l4.19,2.75a1.59,1.59,0,0,0,1.59,0l4-2.73a.39.39,0,0,1,.36,0l9.77,3.7a3.9,3.9,0,0,1,2.25,2.25A59.59,59.59,0,0,1,71.8,97.38a.36.36,0,0,1-.1.29A.39.39,0,0,1,71.41,97.8ZM34.94,97H71a58.88,58.88,0,0,0-1.56-9.44,3.13,3.13,0,0,0-1.8-1.8l-9.58-3.62-3.87,2.62a2.36,2.36,0,0,1-2.43,0l-4-2.65-9.44,3.62a3.11,3.11,0,0,0-1.78,1.79A57.51,57.51,0,0,0,34.94,97Z" transform="translate(-16.99 -15.31)"/><path class="cls-5" d="M45.56,89.2A10,10,0,0,1,45,82.54l.75.2a9.36,9.36,0,0,0,.5,6.16Z" transform="translate(-16.99 -15.31)"/><path class="cls-5" d="M46.86,92.45a2,2,0,1,1,2.06-2A2,2,0,0,1,46.86,92.45Zm0-3.3a1.36,1.36,0,0,0-.73.22,1.27,1.27,0,0,0-.56,1,1.29,1.29,0,1,0,1.29-1.26Z" transform="translate(-16.99 -15.31)"/><path class="cls-5" d="M61.07,86.54l-.77-.12a9.13,9.13,0,0,0-.13-3.64l.75-.19A9.92,9.92,0,0,1,61.07,86.54Z" transform="translate(-16.99 -15.31)"/><path class="cls-5" d="M60.76,94.74a3,3,0,0,1-.52,0,.45.45,0,0,1-.25-.18.39.39,0,0,1,0-.3l.19-.75a.38.38,0,0,1,.47-.28.38.38,0,0,1,.28.47l-.08.31a1.5,1.5,0,0,0,.75-.21.59.59,0,0,0,.27-.35l.59-4.18a2.45,2.45,0,0,0,0-.27,2.15,2.15,0,0,0-1.85-2.09l-.08,0a2.39,2.39,0,0,0-2.92,1.36l-1.52,4a.48.48,0,0,0,.07.39,1.26,1.26,0,0,0,.57.49l.09-.35a.38.38,0,0,1,.47-.27.38.38,0,0,1,.28.47l-.19.75a.4.4,0,0,1-.46.29,2.25,2.25,0,0,1-1.43-1,1.23,1.23,0,0,1-.13-1l1.53-4a3.16,3.16,0,0,1,3.8-1.83l.1,0A2.94,2.94,0,0,1,63.22,89a2.4,2.4,0,0,1,0,.37l-.6,4.21a1.31,1.31,0,0,1-.61.87A2.28,2.28,0,0,1,60.76,94.74Z" transform="translate(-16.99 -15.31)"/><path class="cls-5" d="M62.64,67.86h-.77c0-.92,0-3.11.11-3.84a8.54,8.54,0,0,0-1.4-5c-1.47-2-4.09-3.09-7.78-3.09h0a4,4,0,0,0-2.51.57,2.54,2.54,0,0,1-1.45.44c-4.49,0-5,5-5,7.18.05.82.11,3.47.12,3.77l-.78,0c0-.3-.06-2.94-.12-3.76,0-1.89.4-8,5.74-8a1.67,1.67,0,0,0,1.05-.33,4.76,4.76,0,0,1,2.91-.68h0c4,0,6.79,1.15,8.41,3.42a9.38,9.38,0,0,1,1.54,5.55C62.66,64.82,62.64,67.16,62.64,67.86Z" transform="translate(-16.99 -15.31)"/><path class="cls-5" d="M52.92,80a7.28,7.28,0,0,1-1.21-.09l-.17,0a5,5,0,0,1-2.42-.83c-.37-.29-.76-.61-1.14-1a13.34,13.34,0,0,1-2.63-3.23l0-.05-.71-1.92a.89.89,0,0,0-.23-.34,5.2,5.2,0,0,1-1.65-3.51,1.94,1.94,0,0,1,.61-1.49,1.75,1.75,0,0,1,.4-.27.38.38,0,0,1,.41.06c.06.05.37.29.58.07a8.41,8.41,0,0,0,1.91-3.17,12.36,12.36,0,0,0,.49-1.84.77.77,0,0,1,.62-.58.88.88,0,0,1,.75.15A15.23,15.23,0,0,0,59.7,65a.7.7,0,0,1,.78.53,4,4,0,0,0,.67,1.5c.27.39.57.25.6.23a.4.4,0,0,1,.34,0,1.81,1.81,0,0,1,.42.28,2,2,0,0,1,.59,1.5,5.17,5.17,0,0,1-1.65,3.49.89.89,0,0,0-.23.34l-.71,1.92,0,.05a13.54,13.54,0,0,1-2.62,3.22c-.38.35-.76.67-1.15,1a4.91,4.91,0,0,1-2.42.83l-.18,0A7.07,7.07,0,0,1,52.92,80Zm-6.87-5.48a12.49,12.49,0,0,0,2.45,3l0,0a12.42,12.42,0,0,0,1.05.87,4,4,0,0,0,2.06.69l.18,0a7.47,7.47,0,0,0,2.18,0l.17,0a4.06,4.06,0,0,0,2.07-.69c.37-.27.73-.58,1.09-.9a12.83,12.83,0,0,0,2.45-3l.7-1.9a1.65,1.65,0,0,1,.45-.65,4.45,4.45,0,0,0,1.38-2.91,1.16,1.16,0,0,0-.33-.92l-.09-.08a1.23,1.23,0,0,1-1.38-.55,4.61,4.61,0,0,1-.78-1.7A16.06,16.06,0,0,1,48,62.6a.1.1,0,0,0-.09,0l-.05,0a13.31,13.31,0,0,1-.52,1.91A9.1,9.1,0,0,1,45.3,68a1.1,1.1,0,0,1-1.4.16l0,0a1.15,1.15,0,0,0-.34.91A4.44,4.44,0,0,0,44.91,72a1.83,1.83,0,0,1,.44.65Zm1.85-12Z" transform="translate(-16.99 -15.31)"/><path class="cls-5" d="M57.62,81.81a22.87,22.87,0,0,1-.4-3.81v-.17l.39,0H58V78a21.7,21.7,0,0,0,.38,3.67Z" transform="translate(-16.99 -15.31)"/><path class="cls-5" d="M48.15,81.81l-.76-.18a22,22,0,0,0,.46-3.84l.78,0A24.15,24.15,0,0,1,48.15,81.81Z" transform="translate(-16.99 -15.31)"/></svg>