<svg id="Layer_1" data-name="Layer 1" xmlns="http://www.w3.org/2000/svg" viewBox="0 0 116.02 116.02"><defs><style>.cls-1{fill:#f4991c;}.cls-2{fill:#9c857a;}.cls-3{fill:#fff;}.cls-4{fill:#633f21;}.cls-5{fill:#818080;}.cls-6{fill:#1d1d1b;}.cls-7{fill:#f8fbf9;}.cls-8{fill:#e1f2fb;}</style></defs><title>drs</title><circle class="cls-1" cx="58.01" cy="58.01" r="58.01"/><path class="cls-2" d="M87.7,66.94l6.12,2.27a3.55,3.55,0,0,1,2,2.09,63.51,63.51,0,0,1,1.62,10.26h-37A62.45,62.45,0,0,1,62.07,71.3a3.55,3.55,0,0,1,2-2.09L72.65,66l1.67-.61,3,2a2.9,2.9,0,0,0,3.22,0l3-2,1.74.64ZM71.46,73.48a1.7,1.7,0,1,0,1.68,1.72v0a1.69,1.69,0,0,0-1.68-1.7Z"/><path class="cls-3" d="M83.37,46.19c.49,1.45,1.83,5,3.46,5.75-.62,5.44-1.62,8.49-4.31,10.9-.12.11-.23.21-.35.3a3.92,3.92,0,0,1-2,.89H80l-.49.06H79A6.74,6.74,0,0,1,78,64h-.17a3.94,3.94,0,0,1-2.06-.89l-.34-.3c-2.74-2.45-3.73-5.57-4.35-11.21,5.44-.75,9.15-1.6,11.74-5.51a.34.34,0,0,1,.3-.13A.29.29,0,0,1,83.37,46.19Z"/><path class="cls-3" d="M77.36,67.42l-3-2a5,5,0,0,0,1-2.55h0l.34.3a3.94,3.94,0,0,0,2.06.89h.17a6.74,6.74,0,0,0,1,.08,4,4,0,0,0,.49,0l.49-.06h.17a3.92,3.92,0,0,0,2-.89c.12-.09.23-.19.35-.3h0a5.16,5.16,0,0,0,1,2.55l-3,2A2.9,2.9,0,0,1,77.36,67.42Z"/><path class="cls-4" d="M79,41.11c2.93,0,4.82.83,6,2h0c8.4,6.77,3.62,17.67,3.81,20.13C89,65.12,85.31,66,85.31,66l-1.74-.64a5.16,5.16,0,0,1-1-2.55h0c2.69-2.41,3.69-5.46,4.31-10.9-1.63-.76-3-4.3-3.46-5.75a.28.28,0,0,0-.25-.2.34.34,0,0,0-.3.13c-2.59,3.91-6.3,4.76-11.74,5.51.62,5.64,1.61,8.76,4.35,11.21h0a5,5,0,0,1-1,2.55L72.81,66c-.62-.16-3.72-1.08-3.58-2.82.19-2.46-4.59-13.36,3.8-20.13h0A8.59,8.59,0,0,1,79,41.11Z"/><path class="cls-5" d="M71.46,76.88a1.7,1.7,0,1,1,1.68-1.72v0a1.69,1.69,0,0,1-1.68,1.7Z"/><path class="cls-6" d="M85,43.43h0a.39.39,0,0,1-.27-.11A8.26,8.26,0,0,0,79,41.49a8.29,8.29,0,0,0-5.76,1.83.39.39,0,0,1-.27.11v-.37l-.27-.27a9.08,9.08,0,0,1,6.3-2,9,9,0,0,1,6.3,2l-.27.27Z"/><path class="cls-6" d="M97.47,81.93h-37a.36.36,0,0,1-.28-.12.41.41,0,0,1-.11-.28,62.49,62.49,0,0,1,1.65-10.35A4,4,0,0,1,64,68.87l10.13-3.78a4.9,4.9,0,0,0,.87-2.3l.76.14a5.26,5.26,0,0,1-1.09,2.76.36.36,0,0,1-.16.11L64.27,69.56a3.22,3.22,0,0,0-1.81,1.86,62.12,62.12,0,0,0-1.56,9.77H97a61,61,0,0,0-1.57-9.77,3.16,3.16,0,0,0-1.81-1.86L83.39,65.75a.36.36,0,0,1-.16-.11A5.36,5.36,0,0,1,82.11,63l.76-.17h0a4.7,4.7,0,0,0,.9,2.3L94,68.87a4,4,0,0,1,2.26,2.31,62.47,62.47,0,0,1,1.64,10.35.37.37,0,0,1-.1.28A.39.39,0,0,1,97.47,81.93Z"/><path class="cls-6" d="M79,64.52a8.44,8.44,0,0,1-1-.09h-.17a4.36,4.36,0,0,1-2.24-1l-.37-.32c-3-2.67-3.89-6.21-4.47-11.41v-.07a.39.39,0,0,1,.35-.37c5.26-.72,8.9-1.49,11.45-5.33a.72.72,0,0,1,.68-.31.68.68,0,0,1,.57.46c1,3,2.22,5,3.26,5.52a.38.38,0,0,1,.22.34V52c-.58,5-1.49,8.47-4.44,11.11-.11.11-.23.21-.35.31a4.39,4.39,0,0,1-2.25,1h-.17l-.51.06C79.34,64.51,79.18,64.51,79,64.52ZM71.5,52c.66,5.71,1.74,8.42,4.19,10.62l.34.29a3.56,3.56,0,0,0,1.86.81h.17a4.6,4.6,0,0,0,.91.08h.46l.46-.06h.17a3.6,3.6,0,0,0,1.87-.82l.32-.28c2.42-2.16,3.52-4.91,4.17-10.43-1.54-1-2.74-3.87-3.36-5.68C80.39,50.36,76.57,51.24,71.5,52ZM83,46.32Z"/><path class="cls-6" d="M85.41,66.41l-.2-.72c.93-.23,3.32-1.14,3.22-2.46a12.35,12.35,0,0,1,.37-2.64c.85-4.2,2.42-12-4-17.24l.48-.59h0c6.8,5.51,5.17,13.59,4.3,17.94a12.6,12.6,0,0,0-.36,2.45C89.38,65.38,85.57,66.37,85.41,66.41Z"/><path class="cls-6" d="M72.71,66.41h-.1c-1-.25-4-1.23-3.87-3.2a11.87,11.87,0,0,0-.36-2.52c-.88-4.36-2.51-12.45,4.3-18l.54.54h0c-6.45,5.2-4.88,13-4,17.22a11.92,11.92,0,0,1,.37,2.65c-.09,1.2,2,2.1,3.3,2.44H73Z"/><path class="cls-6" d="M79,68.28a3.29,3.29,0,0,1-1.87-.59l-3-2,.45-.61,3,2a2.49,2.49,0,0,0,2.77,0l3-2,.45.61-3,2A3.33,3.33,0,0,1,79,68.28Z"/><path class="cls-6" d="M70.16,73.89a10.48,10.48,0,0,1-.51-7l.75.19a9.88,9.88,0,0,0,.48,6.5Z"/><path class="cls-6" d="M71.46,77.25a2.07,2.07,0,1,1,2.07-2.07h0A2.07,2.07,0,0,1,71.46,77.25Zm0-3.4a1.33,1.33,0,1,0,1.29,1.37v0a1.31,1.31,0,0,0-1.29-1.33Z"/><path class="cls-6" d="M88.22,70.92l-.77-.11A9.82,9.82,0,0,0,87.32,67l.76-.18A10.73,10.73,0,0,1,88.22,70.92Z"/><path class="cls-6" d="M87.91,78.44a1.55,1.55,0,0,1-.43,0,.4.4,0,0,1-.24-.16.34.34,0,0,1,0-.28l.17-.69a.38.38,0,0,1,.47-.28.36.36,0,0,1,.29.43v0l-.16.21a1.2,1.2,0,0,0,.45-.15.52.52,0,0,0,.27-.36l.55-3.82v-.28a1.79,1.79,0,0,0-1.54-1.84,2,2,0,0,0-2.38,1.26L84,76.16a.56.56,0,0,0,.08.42.92.92,0,0,0,.33.32l.06-.26a.38.38,0,0,1,.47-.28.36.36,0,0,1,.29.43v0l-.17.69a.4.4,0,0,1-.47.28A1.9,1.9,0,0,1,83.45,77a1.22,1.22,0,0,1-.15-1l1.33-3.69A2.73,2.73,0,0,1,88,70.52a2.55,2.55,0,0,1,2.15,2.56,2.29,2.29,0,0,1,0,.37l-.55,3.85a1.35,1.35,0,0,1-.61.86A2,2,0,0,1,87.91,78.44Z"/><path class="cls-7" d="M41,66.41l-4,2.74a2.07,2.07,0,0,1-1,.29,2,2,0,0,1-1-.28l-4.18-2.75a22.45,22.45,0,0,0,.47-3.91,12.42,12.42,0,0,0,1.11.93,4.33,4.33,0,0,0,2.25.76h.17a8.06,8.06,0,0,0,2.3,0h.17a4.33,4.33,0,0,0,2.25-.76,12.42,12.42,0,0,0,1.11-.93A23.29,23.29,0,0,0,41,66.41Z"/><path class="cls-8" d="M29.87,73.45a1.66,1.66,0,1,1-1.68,1.65,1.62,1.62,0,0,1,.74-1.36A1.66,1.66,0,0,1,29.87,73.45Z"/><path class="cls-2" d="M28.93,73.74a1.62,1.62,0,0,0-.74,1.36,1.69,1.69,0,1,0,1.73-1.65A1.67,1.67,0,0,0,28.93,73.74Zm-7.78-3.63,9.63-3.7L35,69.16a2,2,0,0,0,1,.28,2.07,2.07,0,0,0,1-.29l4-2.74,9.77,3.7a3.46,3.46,0,0,1,2,2,58.39,58.39,0,0,1,1.62,10H17.52a60.42,60.42,0,0,1,1.62-10A3.5,3.5,0,0,1,21.15,70.11Z"/><path class="cls-7" d="M26.92,52.34s.62.54,1.11,0A8.55,8.55,0,0,0,30,49a10.45,10.45,0,0,0,.51-1.9.43.43,0,0,1,.33-.28.52.52,0,0,1,.42.09,15.65,15.65,0,0,0,11.49,3.13.3.3,0,0,1,.34.24A4.49,4.49,0,0,0,43.85,52a.87.87,0,0,0,1.1.35,1,1,0,0,1,.32.21c1,.92.18,3.31-1.06,4.41a1.18,1.18,0,0,0-.33.49l-.71,1.93a13.37,13.37,0,0,1-2.54,3.12h0a12.42,12.42,0,0,1-1.11.93,4.33,4.33,0,0,1-2.25.76H37.1a8.06,8.06,0,0,1-2.3,0h-.17a4.33,4.33,0,0,1-2.25-.76,12.42,12.42,0,0,1-1.11-.93h0a13.45,13.45,0,0,1-2.55-3.12L28,57.45a1.18,1.18,0,0,0-.33-.49c-1.24-1.11-2.09-3.51-1-4.42A.91.91,0,0,1,26.92,52.34Z"/><path class="cls-4" d="M44.94,52.34a.87.87,0,0,1-1.1-.35,4.49,4.49,0,0,1-.73-1.64.3.3,0,0,0-.34-.24A15.65,15.65,0,0,1,31.28,47a.52.52,0,0,0-.42-.09.43.43,0,0,0-.33.28,10.45,10.45,0,0,1-.51,1.9,8.55,8.55,0,0,1-2,3.3.83.83,0,0,1-1.11,0,1.27,1.27,0,0,0-.31.2h0c0-.93-.07-3-.12-3.78,0-2.49.64-7.56,5.35-7.57,1.49,0,1.08-1,4-1,8.84,0,9.57,5.82,9.57,8.58-.08.68-.1,2.78-.11,3.79h0A1.07,1.07,0,0,0,44.94,52.34Z"/><path class="cls-6" d="M54.42,82.49H17.52a.41.41,0,0,1-.29-.13.38.38,0,0,1-.1-.29A59.09,59.09,0,0,1,18.78,72,3.81,3.81,0,0,1,21,69.75l9.63-3.7a.36.36,0,0,1,.35,0l4.19,2.75a1.61,1.61,0,0,0,1.59,0l4-2.73a.38.38,0,0,1,.36,0l9.77,3.7A3.9,3.9,0,0,1,53.15,72a60,60,0,0,1,1.66,10,.38.38,0,0,1-.1.29A.39.39,0,0,1,54.42,82.49ZM18,81.69H54a58.1,58.1,0,0,0-1.56-9.44,3.13,3.13,0,0,0-1.8-1.8l-9.58-3.62L37.2,69.45a2.36,2.36,0,0,1-2.43,0l-4-2.65-9.44,3.62a3.11,3.11,0,0,0-1.78,1.79A57.41,57.41,0,0,0,18,81.69Z"/><path class="cls-6" d="M28.57,73.89A10,10,0,0,1,28,67.23l.75.2a9.33,9.33,0,0,0,.5,6.16Z"/><path class="cls-6" d="M29.87,77.14a2,2,0,1,1,.06,0Zm0-3.3a1.36,1.36,0,0,0-.73.22,1.28,1.28,0,0,0-.56,1A1.29,1.29,0,1,0,29.9,73.8h0Z"/><path class="cls-6" d="M44.08,71.23l-.77-.12a9.11,9.11,0,0,0-.13-3.64l.75-.19A9.92,9.92,0,0,1,44.08,71.23Z"/><path class="cls-6" d="M43.77,79.43a2.26,2.26,0,0,1-.52,0,.45.45,0,0,1-.25-.18.39.39,0,0,1,0-.3l.19-.75a.38.38,0,0,1,.46-.28h0a.38.38,0,0,1,.28.46h0l-.08.31a1.54,1.54,0,0,0,.75-.21.59.59,0,0,0,.27-.35L45.47,74v-.27a2.15,2.15,0,0,0-1.85-2.09h-.08A2.39,2.39,0,0,0,40.62,73L39.1,77a.49.49,0,0,0,.07.39,1.24,1.24,0,0,0,.57.49l.09-.35a.38.38,0,0,1,.46-.27h0a.38.38,0,0,1,.28.46h0l-.19.75a.4.4,0,0,1-.46.29,2.26,2.26,0,0,1-1.43-1,1.25,1.25,0,0,1-.13-1l1.53-4a3.15,3.15,0,0,1,3.8-1.83h.1a2.93,2.93,0,0,1,2.43,2.79,2.29,2.29,0,0,1,0,.37l-.6,4.21a1.3,1.3,0,0,1-.61.87A2.35,2.35,0,0,1,43.77,79.43Z"/><path class="cls-6" d="M45.65,52.55h-.77c0-.92,0-3.11.11-3.84a8.6,8.6,0,0,0-1.4-5c-1.47-2-4.09-3.09-7.78-3.09h0a4,4,0,0,0-2.51.57,2.58,2.58,0,0,1-1.45.44c-4.49,0-5,5-5,7.18,0,.82.11,3.47.12,3.77h-.78c0-.3-.06-2.94-.12-3.76,0-1.89.4-8,5.74-8a1.64,1.64,0,0,0,1.05-.33,4.79,4.79,0,0,1,2.91-.68h0c4,0,6.79,1.15,8.41,3.42a9.4,9.4,0,0,1,1.54,5.55C45.67,49.51,45.65,51.85,45.65,52.55Z"/><path class="cls-6" d="M35.93,64.69a8.11,8.11,0,0,1-1.21-.09h-.17a5,5,0,0,1-2.42-.83,11.18,11.18,0,0,1-1.14-1,13.21,13.21,0,0,1-2.63-3.23v0l-.71-1.92a.89.89,0,0,0-.23-.34,5.21,5.21,0,0,1-1.65-3.51,1.94,1.94,0,0,1,.61-1.49,1.56,1.56,0,0,1,.4-.27.38.38,0,0,1,.41.06c.06,0,.37.29.58.07a8.37,8.37,0,0,0,1.91-3.17,12.78,12.78,0,0,0,.49-1.84.77.77,0,0,1,.62-.58.87.87,0,0,1,.75.15,15.23,15.23,0,0,0,11.17,3,.7.7,0,0,1,.78.53,4.14,4.14,0,0,0,.67,1.5c.27.39.57.25.6.23a.4.4,0,0,1,.34,0,1.92,1.92,0,0,1,.42.28,2,2,0,0,1,.59,1.5,5.19,5.19,0,0,1-1.65,3.49.89.89,0,0,0-.23.34l-.71,1.92v.05a13.55,13.55,0,0,1-2.62,3.22c-.38.35-.76.67-1.15,1a4.88,4.88,0,0,1-2.42.83h-.18A7.1,7.1,0,0,1,35.93,64.69Zm-6.87-5.48a12.63,12.63,0,0,0,2.45,3h0a11,11,0,0,0,1.05.87,4,4,0,0,0,2.06.69h.18a7.24,7.24,0,0,0,2.18,0h.17a4.12,4.12,0,0,0,2.07-.69c.37-.27.73-.58,1.09-.9a12.88,12.88,0,0,0,2.45-3l.7-1.9a1.73,1.73,0,0,1,.45-.65,4.42,4.42,0,0,0,1.38-2.91A1.16,1.16,0,0,0,45,52.8l-.09-.08a1.23,1.23,0,0,1-1.38-.55,4.7,4.7,0,0,1-.78-1.7A16,16,0,0,1,31,47.29h-.14a13.81,13.81,0,0,1-.52,1.91,9.19,9.19,0,0,1-2,3.49,1.11,1.11,0,0,1-1.4.16h0a1.15,1.15,0,0,0-.34.91,4.46,4.46,0,0,0,1.35,2.93,1.83,1.83,0,0,1,.44.65Z"/><path class="cls-6" d="M40.63,66.5a23.23,23.23,0,0,1-.4-3.81v-.17H41v.17a21.55,21.55,0,0,0,.38,3.67Z"/><path class="cls-6" d="M31.16,66.5l-.76-.18a21.54,21.54,0,0,0,.46-3.84h.78A24.65,24.65,0,0,1,31.16,66.5Z"/></svg>