<svg id="Layer_1" data-name="Layer 1" xmlns="http://www.w3.org/2000/svg" viewBox="0 0 58.33 81.41"><defs><style>.cls-1{fill:#343434;}.cls-2{fill:#3a9cd7;}</style></defs><title>history</title><g id="g16374"><path id="path17622" class="cls-1" d="M52,39.52a6.65,6.65,0,0,0-6.64,6.64v63.32A6.65,6.65,0,0,0,52,116.12h45a6.65,6.65,0,0,0,6.63-6.64V46.16a6.65,6.65,0,0,0-6.63-6.64h-8.4v5.76A1.78,1.78,0,0,1,87,47.1H62.05a1.68,1.68,0,0,1-1.55-1.82V39.52Zm2,14.06h5.11a1.28,1.28,0,0,1,1.28,1.28V60a1.28,1.28,0,0,1-1.28,1.28H54A1.27,1.27,0,0,1,52.75,60v-5.1A1.27,1.27,0,0,1,54,53.58Zm16.63,2.54H95a1.29,1.29,0,1,1,0,2.58H70.65a1.29,1.29,0,1,1,0-2.58ZM54,69.73h5.11A1.28,1.28,0,0,1,60.41,71v5.11a1.27,1.27,0,0,1-1.28,1.27H54a1.27,1.27,0,0,1-1.27-1.27V71A1.27,1.27,0,0,1,54,69.73Zm16.63,2.54H95a1.29,1.29,0,1,1,0,2.58H70.65a1.29,1.29,0,1,1,0-2.58ZM54,85.88h5.11a1.28,1.28,0,0,1,1.28,1.28v5.11a1.28,1.28,0,0,1-1.28,1.28H54a1.27,1.27,0,0,1-1.27-1.28V87.16A1.27,1.27,0,0,1,54,85.88Zm16.63,2.54H95A1.3,1.3,0,1,1,95,91H70.65a1.3,1.3,0,1,1,0-2.59ZM54,102h5.11a1.27,1.27,0,0,1,1.28,1.27v5.11a1.28,1.28,0,0,1-1.28,1.28H54a1.27,1.27,0,0,1-1.27-1.28v-5.11A1.27,1.27,0,0,1,54,102Zm16.63,2.53H95a1.3,1.3,0,1,1,0,2.59H70.65a1.3,1.3,0,1,1,0-2.59Z" transform="translate(-45.38 -34.72)"/><path id="rect10388-1" class="cls-2" d="M64.51,34.72H84.57a1.32,1.32,0,0,1,1.3,1.34v7.38a1.32,1.32,0,0,1-1.3,1.34H64.51a1.32,1.32,0,0,1-1.29-1.34V36.06A1.32,1.32,0,0,1,64.51,34.72Z" transform="translate(-45.38 -34.72)"/></g></svg>