<svg id="Layer_1" data-name="Layer 1" xmlns="http://www.w3.org/2000/svg" viewBox="0 0 107.28 65.4"><defs><style>.cls-1{fill:#1d1d1b;opacity:0.3;}.cls-2{fill:#f9b220;}.cls-3{font-size:15px;font-family:EuphemiaUCAS, Euphemia UCAS;}</style></defs><title>logo_text</title><path class="cls-1" d="M43.91,71.07c-.15.07-1.34.49-9,.49-8.5,0-9.76-.43-9.91-.5l0,0a2.85,2.85,0,0,1-1.32-2.48c0-1.76,1.08-2.11,1.37-2.17a1.15,1.15,0,0,0,.29.06c.22,0,2.24.24,9.14.24s9-.21,9.17-.24a1,1,0,0,0,.28,0c.33.08,1.34.46,1.34,2.16A2.89,2.89,0,0,1,44,71ZM24.54,63.64c-.4,1.49.17,2,.57,2.12l0,0,.2,0h0s2,.24,9.07.24,9.09-.24,9.11-.24h0l.11,0a.28.28,0,0,1,.13,0c.39-.16.94-.73.54-2.2-.47-1.74-1.59-2.07-1.71-2.07H26.35A2.82,2.82,0,0,0,24.54,63.64Zm.32,8c-.2.17-.64.76-.17,2.32s1.25,1.82,1.26,1.82l.06,0s1.55.78,8.45.78,8.5-.78,8.52-.79l.05,0s.79-.28,1.25-1.81,0-2.18-.17-2.35c-1.15.45-5.52.55-9.2.55C30.89,72.18,26.11,72.08,24.86,71.65Zm1.28-11.24a.56.56,0,0,0,0,.48.36.36,0,0,0,.16.18H42.72a.25.25,0,0,0,.14-.11.6.6,0,0,0,.07-.55,4.21,4.21,0,0,0-2.56-2.8H28.68A4.18,4.18,0,0,0,26.14,60.41Zm.37,18.21c1.23,1.3,2.46,2.16,8,2.16s6.74-.86,8-2.16A1.86,1.86,0,0,0,43,76.46c-.7.24-2.88.75-8.53.75s-7.77-.51-8.47-.74A1.86,1.86,0,0,0,26.51,78.62ZM40,56.07A7.74,7.74,0,0,0,36.76,55c-.73-.07-3.61,0-4.49,0A7.22,7.22,0,0,0,29,56.07c-.46.41-.39.64-.3.94H40.31C40.4,56.71,40.47,56.48,40,56.07Zm3.78,9.71h0a.28.28,0,0,0-.13,0Z" transform="translate(11.1 -18.9)"/><path class="cls-2" d="M43,70.79c-.15.08-1.34.5-9,.5-8.5,0-9.76-.44-9.91-.51l0,0a2.87,2.87,0,0,1-1.32-2.48c0-1.76,1.08-2.11,1.36-2.17a1.25,1.25,0,0,0,.3,0c.22,0,2.24.25,9.14.25s8.95-.22,9.17-.25a1.19,1.19,0,0,0,.28,0c.32.08,1.34.46,1.34,2.17a2.88,2.88,0,0,1-1.26,2.47ZM23.62,63.37c-.4,1.48.17,2,.56,2.12h0a.71.71,0,0,0,.19,0h0s2,.24,9.08.24,9.09-.23,9.11-.24h0l.11,0a.28.28,0,0,1,.13,0c.39-.15.94-.73.54-2.19-.48-1.75-1.59-2.08-1.71-2.08H25.43A2.82,2.82,0,0,0,23.62,63.37Zm.31,8c-.2.18-.63.77-.16,2.33S25,75.51,25,75.51l.06,0s1.55.78,8.45.78,8.5-.78,8.51-.78l.06,0s.78-.27,1.25-1.81,0-2.18-.18-2.34c-1.14.44-5.51.54-9.19.54C30,71.9,25.19,71.8,23.93,71.37Zm1.28-11.24a.67.67,0,0,0,0,.49.44.44,0,0,0,.17.17H41.79a.26.26,0,0,0,.15-.11.63.63,0,0,0,.07-.55,4.19,4.19,0,0,0-2.56-2.79H27.75A4.22,4.22,0,0,0,25.21,60.13Zm.37,18.21c1.24,1.31,2.46,2.16,8,2.16s6.74-.85,8-2.16a1.84,1.84,0,0,0,.51-2.15c-.69.23-2.87.74-8.52.74s-7.77-.51-8.47-.74A1.87,1.87,0,0,0,25.58,78.34Zm13.5-22.55a7.89,7.89,0,0,0-3.24-1.09c-.73-.06-3.61,0-4.49,0a7.34,7.34,0,0,0-3.23,1.09c-.46.42-.39.65-.31,1H39.39C39.47,56.44,39.54,56.2,39.08,55.79Zm3.79,9.72,0,0a.28.28,0,0,0-.13,0Z" transform="translate(11.1 -18.9)"/><text class="cls-3" transform="translate(55.78 49.79)">L</text><text x="11.1" y="-18.9"/><text x="11.1" y="-18.9"/><text class="cls-3" transform="translate(59.18 60.28)">RUCHE</text><text class="cls-3" transform="translate(62 48.82) scale(0.92 1)">A</text></svg>