<svg id="Layer_1" data-name="Layer 1" xmlns="http://www.w3.org/2000/svg" viewBox="0 0 60.31 32.14"><defs><style>.cls-1,.cls-2,.cls-3,.cls-7{fill:#ee970a;}.cls-1,.cls-3,.cls-6{opacity:0.3;}.cls-3,.cls-5,.cls-7,.cls-8{font-size:15px;font-family:Duper;}.cls-3,.cls-5{letter-spacing:0.01em;}.cls-4{letter-spacing:0em;}.cls-5,.cls-8{isolation:isolate;}</style></defs><title>logo-text</title><path class="cls-1" d="M47.25,71.35c-.1.1-1.3.5-9,.5-8.5,0-9.8-.4-9.9-.5h0a2.79,2.79,0,0,1-1.3-2.5c0-1.8,1.1-2.1,1.4-2.2.1,0,.2.1.3.1s2.2.2,9.1.2,9-.2,9.2-.2h.3c.3.1,1.3.5,1.3,2.2a3.05,3.05,0,0,1-1.4,2.4ZM27.85,64c-.4,1.5.2,2,.6,2.1h.2s2,.2,9.1.2,9.1-.2,9.1-.2h.2c.4-.2.9-.7.5-2.2a2.8,2.8,0,0,0-1.7-2.1H29.55A3.34,3.34,0,0,0,27.85,64Zm.3,8c-.2.2-.6.8-.2,2.3s1.2,1.8,1.3,1.8h.1s1.6.8,8.4.8,8.5-.8,8.5-.8h.1s.8-.3,1.2-1.8,0-2.2-.2-2.3c-1.1.4-5.5.5-9.2.5C34.25,72.45,29.45,72.35,28.15,72Zm1.3-11.3c-.1.2,0,.4,0,.5s.1.2.2.2h16.4a.1.1,0,0,0,.1-.1c0-.1.2-.3.1-.5a4.07,4.07,0,0,0-2.6-2.8H32A3.71,3.71,0,0,0,29.45,60.65Zm.4,18.2c1.2,1.3,2.5,2.2,8,2.2s6.7-.9,8-2.2a1.87,1.87,0,0,0,.5-2.2c-.7.2-2.9.7-8.5.7s-7.8-.5-8.5-.7A1.85,1.85,0,0,0,29.85,78.85Zm13.5-22.5a8.69,8.69,0,0,0-3.2-1.1c-.7-.1-3.6,0-4.5,0a7.2,7.2,0,0,0-3.2,1.1c-.5.4-.4.6-.3.9h11.6A1,1,0,0,0,43.35,56.35Zm3.8,9.7Z" transform="translate(-26.56 -49.07)"/><path class="cls-2" d="M46.76,71.1c-.1.1-1.3.5-9,.5-8.5,0-9.8-.4-9.9-.5h0a2.79,2.79,0,0,1-1.3-2.5c0-1.8,1.1-2.1,1.4-2.2.1,0,.2.1.3.1s2.2.2,9.1.2,9-.2,9.2-.2h.3c.3.1,1.3.5,1.3,2.2a3.05,3.05,0,0,1-1.4,2.4Zm-19.4-7.4c-.4,1.5.2,2,.6,2.1h.2s2,.2,9.1.2,9.1-.2,9.1-.2h.2c.4-.2.9-.7.5-2.2a2.8,2.8,0,0,0-1.7-2.1H29.06A3.34,3.34,0,0,0,27.36,63.7Zm.3,8c-.2.2-.6.8-.2,2.3s1.2,1.8,1.3,1.8h.1s1.6.8,8.4.8,8.5-.8,8.5-.8h.1s.8-.3,1.2-1.8,0-2.2-.2-2.3c-1.1.4-5.5.5-9.2.5C33.76,72.2,29,72.1,27.66,71.7ZM29,60.4c-.1.2,0,.4,0,.5s.1.2.2.2h16.4a.1.1,0,0,0,.1-.1c0-.1.2-.3.1-.5a4.07,4.07,0,0,0-2.6-2.8H31.46A3.71,3.71,0,0,0,29,60.4Zm.4,18.2c1.2,1.3,2.5,2.2,8,2.2s6.7-.9,8-2.2a1.87,1.87,0,0,0,.5-2.2c-.7.2-2.9.7-8.5.7s-7.8-.5-8.5-.7A1.85,1.85,0,0,0,29.36,78.6Zm13.5-22.5a8.69,8.69,0,0,0-3.2-1.1c-.7-.1-3.6,0-4.5,0A7.2,7.2,0,0,0,32,56.1c-.5.4-.4.6-.3.9h11.6A1,1,0,0,0,42.86,56.1Zm3.8,9.7Z" transform="translate(-26.56 -49.07)"/><path class="cls-1" d="M74.44,62.8a2.2,2.2,0,0,0-1.26-1.16L71.6,61v-.32A2.05,2.05,0,0,0,71,59.22l.32-.32a.67.67,0,0,0,.63-.63.63.63,0,1,0-1.26,0v.21l-.32.32a1.5,1.5,0,0,0-.74-.11c-.31,0-.52.11-.73.11l-.32-.42v-.21a.69.69,0,0,0-.63-.64.64.64,0,0,0,0,1.27h0l.31.31a1.79,1.79,0,0,0-.63,1.48v.32L66,61.54a2.27,2.27,0,0,0-1.37,1.16A1.55,1.55,0,0,0,65,64.28,1.49,1.49,0,0,0,66,64.8h.11a1.73,1.73,0,0,0,.95-.31,2.47,2.47,0,0,0,2.1,1.68v.64a.28.28,0,0,0,.32.31.27.27,0,0,0,.31-.31v-.64a2.7,2.7,0,0,0,2.11-1.58h0v-.1a1.7,1.7,0,0,0,1,.31H73c.63,0,.94-.52,1-.52A1.26,1.26,0,0,0,74.44,62.8Zm-6.85.74A.93.93,0,0,1,67.7,63h3.9a5.14,5.14,0,0,1,.1.53,1.39,1.39,0,0,1-.1.63H67.8A1.57,1.57,0,0,1,67.59,63.54ZM68,62.38a1.85,1.85,0,0,1,1.58-.84,1.83,1.83,0,0,1,1.58.84Zm2.85-1.69a.63.63,0,0,1-.11.43,2.24,2.24,0,0,0-2.31,0c0-.11-.11-.32-.11-.43a1.22,1.22,0,0,1,1.26-1.26A1.16,1.16,0,0,1,70.86,60.69Zm-4.64,3.48A.8.8,0,0,1,65.7,64h0a1.07,1.07,0,0,1-.22-1,1.28,1.28,0,0,1,1-.73l1.27-.53A3,3,0,0,0,67,63.54v.21C66.64,64.07,66.43,64.17,66.22,64.17Zm3.37,1.37a1.82,1.82,0,0,1-1.47-.74h3A1.88,1.88,0,0,1,69.59,65.54Zm4-1.68a1.42,1.42,0,0,1-.53.31.9.9,0,0,1-.74-.42v-.21c0-.32-.1-.63-.1-.95v-.1a2.36,2.36,0,0,0-.53-.85l1.27.53s.73.21.84.74A1.1,1.1,0,0,1,73.6,63.86Z" transform="translate(-26.56 -49.07)"/><path d="M74.1,62.62a2.2,2.2,0,0,0-1.26-1.16l-1.58-.63v-.32A2.08,2.08,0,0,0,70.63,59l.31-.32a.63.63,0,0,0,0-1.26.68.68,0,0,0-.63.63v.21l-.32.32a1.48,1.48,0,0,0-.73-.11c-.32,0-.53.11-.74.11l-.32-.42V58a.63.63,0,1,0-.63.64h0l.32.31a1.79,1.79,0,0,0-.64,1.48v.31l-1.58.64a2.27,2.27,0,0,0-1.37,1.16,1.55,1.55,0,0,0,.32,1.58,1.49,1.49,0,0,0,1,.52h.11a1.7,1.7,0,0,0,1-.31A2.48,2.48,0,0,0,68.84,66v.64a.27.27,0,0,0,.31.31.28.28,0,0,0,.32-.31V66a2.68,2.68,0,0,0,2.1-1.58h0v-.1a1.73,1.73,0,0,0,1,.31h.11c.63,0,1-.52,1.05-.52A1.26,1.26,0,0,0,74.1,62.62Zm-6.85.74a.93.93,0,0,1,.11-.53h3.9a5.14,5.14,0,0,1,.1.53,1.39,1.39,0,0,1-.1.63H67.47A1.45,1.45,0,0,1,67.25,63.36Zm.43-1.16a1.83,1.83,0,0,1,1.58-.84,1.85,1.85,0,0,1,1.58.84Zm2.84-1.69a.68.68,0,0,1-.1.43,2.07,2.07,0,0,0-1.16-.32,2,2,0,0,0-1.16.32c0-.11-.11-.32-.11-.43a1.22,1.22,0,0,1,1.27-1.26A1.16,1.16,0,0,1,70.52,60.51ZM65.88,64a.8.8,0,0,1-.52-.21h0a1.07,1.07,0,0,1-.21-1,1.26,1.26,0,0,1,.95-.74l1.26-.52a3,3,0,0,0-.74,1.79v.21C66.31,63.89,66.1,64,65.88,64Zm3.38,1.37a1.85,1.85,0,0,1-1.48-.74h3.06A1.89,1.89,0,0,1,69.26,65.36Zm4-1.69a1.37,1.37,0,0,1-.53.32.89.89,0,0,1-.73-.42v-.21c0-.32-.11-.63-.11-1V62.3a2.27,2.27,0,0,0-.53-.84l1.27.53s.74.21.84.74A1,1,0,0,1,73.26,63.67Z" transform="translate(-26.56 -49.07)"/><text x="-26.56" y="-49.07"/><text class="cls-3" transform="translate(19.48 17.48)">L<tspan class="cls-4" x="5.94" y="0">a</tspan></text><text class="cls-5" transform="translate(19.35 17.31)">L<tspan class="cls-4" x="5.94" y="0">a</tspan></text><g class="cls-6"><text class="cls-7" transform="translate(20.94 27.19)">Ruche</text></g><text class="cls-8" transform="translate(20.83 26.97)">Ruche</text><circle cx="11.64" cy="20.19" r="1.64"/></svg>