<svg id="Layer_1" data-name="Layer 1" xmlns="http://www.w3.org/2000/svg" viewBox="0 0 75.22 87.3"><defs><style>.cls-1{fill:#1d1d1b;opacity:0.3;}.cls-2{fill:#f9b220;}</style></defs><title>logo</title><path class="cls-1" d="M84.83,61.9c-.49.25-4.47,1.65-30.09,1.65-28.39,0-32.61-1.44-33.11-1.68a.57.57,0,0,0-.13-.08,9.54,9.54,0,0,1-4.4-8.29c0-5.89,3.6-7,4.55-7.26a4,4,0,0,0,1,.19c.73.09,7.49.81,30.54.81s29.93-.73,30.65-.81a4.2,4.2,0,0,0,.93-.17c1.09.26,4.47,1.53,4.47,7.24A9.67,9.67,0,0,1,85,61.77,1.37,1.37,0,0,0,84.83,61.9ZM20.1,37.08c-1.35,5,.56,6.59,1.88,7.09l.08,0a2.47,2.47,0,0,0,.66.17h.13c.06,0,6.56.8,30.34.8s30.37-.79,30.44-.8h.12a1.81,1.81,0,0,0,.38-.06,1.2,1.2,0,0,1,.44-.14c1.3-.52,3.13-2.43,1.8-7.33-1.59-5.84-5.31-6.93-5.73-6.93H26.15C26.08,29.92,21.76,31,20.1,37.08Zm1,26.75c-.67.59-2.13,2.57-.53,7.78s4.16,6.06,4.19,6.07l.2.09s5.2,2.6,28.24,2.6,28.42-2.59,28.47-2.62l.19-.07s2.61-.93,4.17-6.07c1.63-5.33.07-7.27-.59-7.82-3.83,1.48-18.43,1.81-30.74,1.81C41.3,65.6,25.34,65.28,21.14,63.83Zm4.28-37.56a2.14,2.14,0,0,0,.1,1.62,1.19,1.19,0,0,0,.57.58H80.83a.8.8,0,0,0,.5-.38,2,2,0,0,0,.22-1.83c-2.29-7-7.52-9-8.54-9.34H35.1s-1.12,0-1.18,0C32.9,17.29,27.71,19.28,25.42,26.27Zm1.24,60.86c4.13,4.37,8.23,7.23,26.68,7.23S75.89,91.5,80,87.13c3-3.19,2.29-6,1.71-7.2-2.33.78-9.6,2.49-28.5,2.49s-26-1.69-28.3-2.48C24.38,81.18,23.67,84,26.66,87.13ZM71.78,11.77c-2-1.81-8.16-3.39-10.84-3.64-2.45-.22-12.07-.15-15,0S37.13,10,35.14,11.77c-1.53,1.38-1.31,2.15-1,3.15H72.8C73.09,13.92,73.32,13.15,71.78,11.77ZM84.42,44.24l.14-.06a1.21,1.21,0,0,0-.43.14Z" transform="translate(-14.01 -7.06)"/><path class="cls-2" d="M81.75,61c-.5.24-4.48,1.65-30.09,1.65-28.4,0-32.61-1.44-33.11-1.68l-.13-.09A9.52,9.52,0,0,1,14,52.57c0-5.89,3.6-7,4.56-7.25a4.4,4.4,0,0,0,1,.19c.72.08,7.48.81,30.54.81s29.92-.73,30.64-.81a4.62,4.62,0,0,0,.93-.17c1.09.26,4.48,1.52,4.48,7.23a9.67,9.67,0,0,1-4.21,8.28ZM17,36.16c-1.36,5,.56,6.59,1.88,7.09,0,0,.05,0,.07,0a2.65,2.65,0,0,0,.67.16h.12c.07,0,6.56.81,30.34.81s30.38-.8,30.44-.8h.13l.38-.06a.91.91,0,0,1,.43-.14c1.3-.52,3.14-2.43,1.81-7.33C81.7,30.08,78,29,77.56,29H23.07C23,29,18.68,30.09,17,36.16Zm1,26.75c-.67.59-2.13,2.56-.54,7.78s4.17,6.06,4.19,6.07l.2.08s5.2,2.61,28.24,2.61,28.42-2.6,28.48-2.62l.18-.08s2.62-.92,4.18-6.06c1.62-5.34.06-7.28-.6-7.83C78.56,64.35,64,64.68,51.66,64.68,38.22,64.68,22.26,64.35,18.06,62.91Zm4.28-37.57a2.11,2.11,0,0,0,.1,1.63,1.15,1.15,0,0,0,.56.57l54.75,0a.87.87,0,0,0,.49-.38,2,2,0,0,0,.23-1.83c-2.29-7-7.52-9-8.54-9.34,0,0-1.09,0-1.12,0H32s-1.11,0-1.18,0C29.81,16.36,24.63,18.36,22.34,25.34Zm1.23,60.87c4.14,4.36,8.23,7.23,26.69,7.23S72.8,90.57,77,86.21c3-3.19,2.28-6,1.71-7.2-2.33.77-9.61,2.49-28.51,2.49s-26-1.7-28.29-2.48C21.29,80.26,20.59,83.06,23.57,86.21ZM68.7,10.84c-2-1.8-8.16-3.39-10.84-3.63-2.46-.23-12.07-.15-15,0S34,9.06,32.05,10.85C30.52,12.23,30.75,13,31,14H69.71C70,13,70.24,12.22,68.7,10.84ZM81.34,43.32l.14-.06a1,1,0,0,0-.44.14Z" transform="translate(-14.01 -7.06)"/></svg>