<svg id="Layer_1" data-name="Layer 1" xmlns="http://www.w3.org/2000/svg" viewBox="0 0 46.24 35.68"><defs><style>.cls-1,.cls-2{fill:#ee970a;}.cls-1{opacity:0.3;}</style></defs><title>logo</title><path class="cls-1" d="M61.32,75.05c-.1.1-1.3.5-9,.5-8.5,0-9.8-.4-9.9-.5h0a2.79,2.79,0,0,1-1.3-2.5c0-1.8,1.1-2.1,1.4-2.2.1,0,.2.1.3.1s2.2.2,9.1.2,9-.2,9.2-.2h.3c.3.1,1.3.5,1.3,2.2a3.05,3.05,0,0,1-1.4,2.4Zm-19.4-7.4c-.4,1.5.2,2,.6,2.1h.2s2,.2,9.1.2,9.1-.2,9.1-.2h.2c.4-.2.9-.7.5-2.2a2.8,2.8,0,0,0-1.7-2.1H43.62A3.34,3.34,0,0,0,41.92,67.65Zm.3,8c-.2.2-.6.8-.2,2.3s1.2,1.8,1.3,1.8h.1s1.6.8,8.4.8,8.5-.8,8.5-.8h.1s.8-.3,1.2-1.8,0-2.2-.2-2.3c-1.1.4-5.5.5-9.2.5C48.32,76.15,43.52,76.05,42.22,75.65Zm1.3-11.3c-.1.2,0,.4,0,.5s.1.2.2.2h16.4a.1.1,0,0,0,.1-.1c0-.1.2-.3.1-.5a4.07,4.07,0,0,0-2.6-2.8H46A3.71,3.71,0,0,0,43.52,64.35Zm.4,18.2c1.2,1.3,2.5,2.2,8,2.2s6.7-.9,8-2.2a1.87,1.87,0,0,0,.5-2.2c-.7.2-2.9.7-8.5.7s-7.8-.5-8.5-.7A1.85,1.85,0,0,0,43.92,82.55Zm13.5-22.5a8.69,8.69,0,0,0-3.2-1.1c-.7-.1-3.6,0-4.5,0a7.2,7.2,0,0,0-3.2,1.1c-.5.4-.4.6-.3.9h11.6A1,1,0,0,0,57.42,60.05Zm3.8,9.7Z" transform="translate(-40.63 -49.07)"/><path class="cls-2" d="M60.83,74.8c-.1.1-1.3.5-9,.5-8.5,0-9.8-.4-9.9-.5h0a2.79,2.79,0,0,1-1.3-2.5c0-1.8,1.1-2.1,1.4-2.2.1,0,.2.1.3.1s2.2.2,9.1.2,9-.2,9.2-.2h.3c.3.1,1.3.5,1.3,2.2a3.05,3.05,0,0,1-1.4,2.4Zm-19.4-7.4c-.4,1.5.2,2,.6,2.1h.2s2,.2,9.1.2,9.1-.2,9.1-.2h.2c.4-.2.9-.7.5-2.2a2.8,2.8,0,0,0-1.7-2.1H43.13A3.34,3.34,0,0,0,41.43,67.4Zm.3,8c-.2.2-.6.8-.2,2.3s1.2,1.8,1.3,1.8h.1s1.6.8,8.4.8,8.5-.8,8.5-.8h.1s.8-.3,1.2-1.8,0-2.2-.2-2.3c-1.1.4-5.5.5-9.2.5C47.83,75.9,43,75.8,41.73,75.4ZM43,64.1c-.1.2,0,.4,0,.5s.1.2.2.2h16.4a.1.1,0,0,0,.1-.1c0-.1.2-.3.1-.5a4.07,4.07,0,0,0-2.6-2.8H45.53A3.71,3.71,0,0,0,43,64.1Zm.4,18.2c1.2,1.3,2.5,2.2,8,2.2s6.7-.9,8-2.2a1.87,1.87,0,0,0,.5-2.2c-.7.2-2.9.7-8.5.7s-7.8-.5-8.5-.7A1.85,1.85,0,0,0,43.43,82.3Zm13.5-22.5a8.69,8.69,0,0,0-3.2-1.1c-.7-.1-3.6,0-4.5,0A7.2,7.2,0,0,0,46,59.8c-.5.4-.4.6-.3.9h11.6A1,1,0,0,0,56.93,59.8Zm3.8,9.7Z" transform="translate(-40.63 -49.07)"/><text x="-40.63" y="-49.07"/><circle cx="11.64" cy="23.88" r="1.64"/></svg>