<svg id="Layer_1" data-name="Layer 1" xmlns="http://www.w3.org/2000/svg" viewBox="0 0 42.09 81.41"><defs><style>.cls-1{fill:#343434;}.cls-2{fill:#3a9cd7;}</style></defs><title>medication</title><g id="g31081"><path id="rect3772" class="cls-1" d="M88.49,47.93c-6.95.33-13.93,0-20.88.12-2.33-.19-4.7.2-7,.05v4.53a7.58,7.58,0,0,0-7.09,7.59v48.31a7.58,7.58,0,0,0,7.59,7.59H88a7.58,7.58,0,0,0,7.6-7.59V60.22a7.59,7.59,0,0,0-7.09-7.59Zm-14,17.31h.16a4.42,4.42,0,0,1,2.15.58L79,67.05a4.53,4.53,0,0,1,1.76,6.16c-3.6,6.41-8,14.29-12,21.35a4.53,4.53,0,0,1-6.18,1.71l-2.19-1.22a4.55,4.55,0,0,1-1.76-6.18l12-21.34a4.48,4.48,0,0,1,3.87-2.29Zm0,1.05H74.3a3.42,3.42,0,0,0-2.75,1.75L65.83,78.26l8.29,4.65L79.84,72.7A3.46,3.46,0,0,0,78.49,68L76.3,66.74a3.49,3.49,0,0,0-1.75-.45Zm7.94,15.1h0a8.79,8.79,0,0,1,4.34,1.17A8.69,8.69,0,0,1,91,88.21a.71.71,0,0,1-.13.58.7.7,0,0,1-.53.26H74.63a.7.7,0,0,1-.54-.26.67.67,0,0,1-.13-.58,8.66,8.66,0,0,1,.91-2.38h0l0-.07h0a8.69,8.69,0,0,1,7.57-4.36Zm-7.86,9.78H90.31a.7.7,0,0,1,.53.26A.65.65,0,0,1,91,92a8.94,8.94,0,0,1-1,2.46A8.71,8.71,0,0,1,74,92a.69.69,0,0,1,.14-.57A.67.67,0,0,1,74.63,91.17Z" transform="translate(-53.5 -34.72)"/><rect id="rect3770" class="cls-2" x="2.49" width="37.11" height="11.21" rx="4.23"/></g></svg>