<svg id="Layer_1" data-name="Layer 1" xmlns="http://www.w3.org/2000/svg" viewBox="0 0 125.67 125.67"><defs><style>.cls-1{fill:#abd2ef;}.cls-2{fill:#fff;}.cls-3{fill:#e1f2fb;}.cls-4{fill:#aaaba6;}.cls-5{fill:#f8fbf9;}.cls-6{fill:#343434;}</style></defs><title>nurse</title><circle class="cls-1" cx="62.84" cy="62.84" r="62.84"/><path class="cls-2" d="M115.4,80.75l.41-.37h0a10.68,10.68,0,0,0,.64,2.29,4.21,4.21,0,0,0,.59.92l.11,0-4.07,3.79a2.62,2.62,0,0,1-3,.21l-4.23-3.94.27-.1a3.82,3.82,0,0,0,.58-.92,10.09,10.09,0,0,0,.65-2.29h0l.41.37a4.57,4.57,0,0,0,2.43,1.12l.2,0a6.51,6.51,0,0,0,1.16.11,5.09,5.09,0,0,0,.58,0l.58-.08.2,0A4.57,4.57,0,0,0,115.4,80.75Z" transform="translate(-16.78 -13.12)"/><path class="cls-3" d="M133.54,101.45H89.68A46.16,46.16,0,0,1,91.6,91,4.34,4.34,0,0,1,94,88.39l11.88-4.69,4.23,3.94a2.62,2.62,0,0,0,3-.21l4.07-3.79,12,4.75A4.34,4.34,0,0,1,131.62,91,46.16,46.16,0,0,1,133.54,101.45Z" transform="translate(-16.78 -13.12)"/><path class="cls-4" d="M102.25,66.28c.73,7.09,1.91,11,5.16,14.1h0a10.09,10.09,0,0,1-.65,2.29s-6.87.57-6.8-1.85c.22-7.27-4.59-15.41,2.45-23.31l1.32,3.5a36.76,36.76,0,0,1,11.7-.57C112.39,64.43,108.19,65.41,102.25,66.28Z" transform="translate(-16.78 -13.12)"/><path class="cls-4" d="M123.28,80.83c.07,2.42-6.8,1.85-6.8,1.85h0a10.68,10.68,0,0,1-.64-2.29h0a13.37,13.37,0,0,0,3.38-5.16,34.83,34.83,0,0,0,1.74-8.55c-1.58-.78-2.93-3.89-3.68-6,.7.1,1.44.22,2.22.35l1.33-3.54C127.89,65.39,123.07,73.54,123.28,80.83Z" transform="translate(-16.78 -13.12)"/><path class="cls-5" d="M121.15,52.87a2.28,2.28,0,0,1,.49,2.39l-.84,2.22L119.47,61c-.78-.13-1.52-.25-2.22-.35s-1.24-.16-1.84-.22a36.76,36.76,0,0,0-11.7.57l-1.32-3.5-.85-2.26a2.26,2.26,0,0,1,.49-2.39,14.62,14.62,0,0,1,19.12,0Z" transform="translate(-16.78 -13.12)"/><path class="cls-5" d="M120.93,66.67a34.83,34.83,0,0,1-1.74,8.55,13.37,13.37,0,0,1-3.38,5.16l-.41.37A4.57,4.57,0,0,1,113,81.87l-.2,0-.58.08a5.09,5.09,0,0,1-.58,0,6.51,6.51,0,0,1-1.16-.11l-.2,0a4.57,4.57,0,0,1-2.43-1.12l-.41-.37c-3.25-3.09-4.43-7-5.16-14.1,5.94-.87,10.14-1.85,13.16-5.83.6.06,1.2.14,1.84.22C118,62.78,119.35,65.89,120.93,66.67Z" transform="translate(-16.78 -13.12)"/><path class="cls-6" d="M111.62,82.49a7.42,7.42,0,0,1-1.24-.11l-.2,0a5.06,5.06,0,0,1-2.66-1.22l-.44-.4c-3.55-3.38-4.61-7.65-5.3-14.36a.22.22,0,0,1,0-.08.49.49,0,0,1,.43-.48c5.63-.82,9.85-1.71,12.83-5.64l.76.58c-3.11,4.1-7.55,5.13-13,5.94.78,7.18,2.06,10.58,5,13.35l.39.37a4.16,4.16,0,0,0,2.2,1l.2,0a5.64,5.64,0,0,0,1.08.1,4.44,4.44,0,0,0,.53,0l.55-.08.2,0a4.08,4.08,0,0,0,2.21-1c.12-.1.25-.22.38-.35a12.78,12.78,0,0,0,3.26-5,33.05,33.05,0,0,0,1.68-8.13c-1.55-1-2.82-3.83-3.62-6.09l.9-.32c1.11,3.11,2.36,5.2,3.44,5.73a.49.49,0,0,1,.27.48,35.58,35.58,0,0,1-1.77,8.67,13.73,13.73,0,0,1-3.5,5.33l-.42.39A5.06,5.06,0,0,1,113,82.34l-.2,0-.6.08A5.85,5.85,0,0,1,111.62,82.49Z" transform="translate(-16.78 -13.12)"/><path class="cls-6" d="M118.17,83.22c-.87,0-1.55,0-1.73-.06l.08-1c1.32.11,5,.17,6-.83a.69.69,0,0,0,.23-.54,34.56,34.56,0,0,1,.69-6.66c.89-5.38,1.82-11-3-16.38l.71-.64c5.17,5.78,4.2,11.57,3.27,17.17a34,34,0,0,0-.67,6.49,1.62,1.62,0,0,1-.54,1.25C122.2,83,119.83,83.22,118.17,83.22Z" transform="translate(-16.78 -13.12)"/><path class="cls-6" d="M105.05,83.22c-1.66,0-4-.18-5-1.15a1.62,1.62,0,0,1-.54-1.26,33.89,33.89,0,0,0-.67-6.48C97.86,68.74,96.9,63,102,57.2l.72.63c-4.83,5.42-3.91,11-3,16.34a34.75,34.75,0,0,1,.69,6.67.69.69,0,0,0,.23.54c1.06,1,4.73.93,6,.83l.08,1C106.6,83.17,105.92,83.22,105.05,83.22Z" transform="translate(-16.78 -13.12)"/><path class="cls-6" d="M111.46,88.48a3.09,3.09,0,0,1-1.59-.43L109.8,88l-4.23-3.94.65-.7,4.19,3.9a2.11,2.11,0,0,0,2.38-.18L117,83.15l.65.69-4.23,3.94A3,3,0,0,1,111.46,88.48Z" transform="translate(-16.78 -13.12)"/><path class="cls-6" d="M133.54,101.92H89.68a.48.48,0,0,1-.36-.15.49.49,0,0,1-.12-.37,46.57,46.57,0,0,1,2-10.54A4.86,4.86,0,0,1,93.82,88l12.05-4.75a3.86,3.86,0,0,0,.44-.72,9.63,9.63,0,0,0,.6-2.12l0-.07.93.2,0,.07a10.48,10.48,0,0,1-.66,2.33,4.81,4.81,0,0,1-.65,1,.52.52,0,0,1-.19.14L94.19,88.83a3.81,3.81,0,0,0-2.13,2.33A44.76,44.76,0,0,0,90.2,101H133a44.76,44.76,0,0,0-1.86-9.81A3.87,3.87,0,0,0,129,88.82L116.88,84a.52.52,0,0,1-.19-.14,4.76,4.76,0,0,1-.65-1,10.7,10.7,0,0,1-.68-2.39l.94-.2a9.47,9.47,0,0,0,.61,2.19,3.86,3.86,0,0,0,.44.72l12,4.74a4.85,4.85,0,0,1,2.69,2.92,46.57,46.57,0,0,1,2,10.54.49.49,0,0,1-.12.37A.48.48,0,0,1,133.54,101.92Z" transform="translate(-16.78 -13.12)"/><path class="cls-6" d="M103.71,61.5a.48.48,0,0,1-.45-.31l-2.17-5.76a2.75,2.75,0,0,1,.6-2.89,15.06,15.06,0,0,1,19.8,0,2.75,2.75,0,0,1,.6,2.89l-2.17,5.76a.49.49,0,0,1-.53.3c-.77-.13-1.51-.24-2.21-.34s-1.23-.17-1.82-.23h0a36.54,36.54,0,0,0-11.56.57ZM115.46,60c.6.07,1.22.14,1.85.23l1.85.28,2-5.39a1.78,1.78,0,0,0-.38-1.88,14.14,14.14,0,0,0-18.44,0,1.8,1.8,0,0,0-.39,1.88l2,5.39A37.1,37.1,0,0,1,115.46,60Z" transform="translate(-16.78 -13.12)"/><rect class="cls-6" x="94.33" y="39.33" width="0.95" height="5.38"/><rect class="cls-6" x="92.25" y="41.55" width="5.12" height="0.95"/><path class="cls-3" d="M39.65,101.63h-9a67.67,67.67,0,0,1,2.19-12.84,4.89,4.89,0,0,1,2.71-2.89l13.17-5.21c5.46,3,8.61,2.9,14.12,0l13.25,5.18a4.84,4.84,0,0,1,2.73,2.89A66.42,66.42,0,0,1,81,101.63H39.65Z" transform="translate(-16.78 -13.12)"/><path class="cls-2" d="M49.57,75.44h0a17.11,17.11,0,0,1-3.36-4L45.27,69a1.79,1.79,0,0,0-.44-.64c-1.64-1.42-2.76-4.51-1.4-5.68a1.51,1.51,0,0,1,.42-.27s.83.7,1.47,0A11.23,11.23,0,0,0,48,58.15a16.12,16.12,0,0,0,.67-2.44c0-.19.24-.31.43-.36a.69.69,0,0,1,.56.12,21.05,21.05,0,0,0,15.19,4,.4.4,0,0,1,.45.3,5.47,5.47,0,0,0,1,2.11,1.14,1.14,0,0,0,1.45.45,2,2,0,0,1,.44.28c1.34,1.19.22,4.25-1.41,5.67a1.57,1.57,0,0,0-.44.64l-1,2.47a16.64,16.64,0,0,1-3.36,4,16.34,16.34,0,0,1-1.48,1.21,6,6,0,0,1-3,1l-.23,0a9.75,9.75,0,0,1-1.52.11,9.57,9.57,0,0,1-1.52-.11l-.23,0a6,6,0,0,1-3-1C50.56,76.29,50.06,75.88,49.57,75.44Z" transform="translate(-16.78 -13.12)"/><path class="cls-4" d="M67.68,62.36a1.14,1.14,0,0,1-1.45-.45,5.47,5.47,0,0,1-1-2.11.4.4,0,0,0-.45-.3,21.05,21.05,0,0,1-15.19-4,.69.69,0,0,0-.56-.12c-.19,0-.4.17-.43.36A16.12,16.12,0,0,1,48,58.15a11.23,11.23,0,0,1-2.64,4.26c-.64.65-1.47,0-1.47,0a1.51,1.51,0,0,0-.42.27c0-1.19-.1-3.92-.16-4.86,0-3.2.85-9.73,7.08-9.74,2,0,1.43-1.3,5.25-1.3,11.7,0,12.67,7.49,12.67,11-.12.87-.14,3.58-.15,4.87h0A2,2,0,0,0,67.68,62.36Z" transform="translate(-16.78 -13.12)"/><path class="cls-2" d="M62.54,80.62l.3.11c-5.51,2.86-8.66,2.92-14.12,0l.19-.07a30,30,0,0,0,.66-5.18c.49.44,1,.85,1.48,1.21a6,6,0,0,0,3,1l.23,0a9.57,9.57,0,0,0,1.52.11,9.75,9.75,0,0,0,1.52-.11l.23,0a6,6,0,0,0,3-1A16.34,16.34,0,0,0,62,75.44,31.7,31.7,0,0,0,62.54,80.62Z" transform="translate(-16.78 -13.12)"/><rect class="cls-6" x="29.72" y="76.97" width="1.11" height="6.63"/><rect class="cls-6" x="26.86" y="79.75" width="6.81" height="1.08"/><path class="cls-6" d="M68.68,62.64H67.57c0-1.17,0-4,.15-4.94a10.82,10.82,0,0,0-1.85-6.47c-1.93-2.63-5.38-4-10.25-4h0a5.4,5.4,0,0,0-3.3.73,3.45,3.45,0,0,1-1.95.57c-5.91,0-6.53,6.44-6.53,9.2.07.9.13,3.54.16,4.81l-.55.05h-.55c0-1.18-.1-3.91-.17-4.82,0-2.44.54-10.3,7.64-10.32a2.3,2.3,0,0,0,1.37-.42,6.51,6.51,0,0,1,3.88-.88h0c5.24,0,9,1.49,11.15,4.41a11.85,11.85,0,0,1,2,7.17C68.7,58.74,68.68,61.74,68.68,62.64Z" transform="translate(-16.78 -13.12)"/><path class="cls-6" d="M55.77,78.31a9.45,9.45,0,0,1-1.61-.12l-.23,0a6.48,6.48,0,0,1-3.21-1.08,18,18,0,0,1-1.52-1.24,17.44,17.44,0,0,1-3.48-4.16l0-.07-.94-2.48a1,1,0,0,0-.3-.42,6.55,6.55,0,0,1-2.18-4.53,2.27,2.27,0,0,1,1.35-2.31.55.55,0,0,1,.59.08c.07.06.45.34.71.09A10.75,10.75,0,0,0,47.44,58a15.38,15.38,0,0,0,.64-2.36,1.05,1.05,0,0,1,.86-.78A1.2,1.2,0,0,1,50,55,20.53,20.53,0,0,0,64.73,59a1,1,0,0,1,1.07.72,5.19,5.19,0,0,0,.88,1.91.61.61,0,0,0,.76.28.55.55,0,0,1,.47,0,1.94,1.94,0,0,1,.59.38,2.55,2.55,0,0,1,.77,2,6.67,6.67,0,0,1-2.19,4.51,1,1,0,0,0-.29.41l-1,2.48,0,.07a17.41,17.41,0,0,1-3.47,4.16,18.78,18.78,0,0,1-1.52,1.24,6.54,6.54,0,0,1-3.22,1.08l-.24,0A9.2,9.2,0,0,1,55.77,78.31ZM46.72,71.2A16.52,16.52,0,0,0,50,75.05a18,18,0,0,0,1.43,1.17,5.51,5.51,0,0,0,2.72.87l.22,0a9.55,9.55,0,0,0,2.89,0l.22,0a5.51,5.51,0,0,0,2.72-.87,17,17,0,0,0,1.43-1.17,16.64,16.64,0,0,0,3.24-3.85l.93-2.44a2,2,0,0,1,.59-.85,5.56,5.56,0,0,0,1.82-3.71A1.52,1.52,0,0,0,67.75,63L67.63,63a1.72,1.72,0,0,1-1.85-.73,6,6,0,0,1-1-2.17,21.71,21.71,0,0,1-15.47-4.16.11.11,0,0,0-.08,0h0a16.12,16.12,0,0,1-.68,2.44,11.62,11.62,0,0,1-2.76,4.45,1.54,1.54,0,0,1-1.88.22l0,0a1.48,1.48,0,0,0-.43,1.15,5.65,5.65,0,0,0,1.82,3.73,2.17,2.17,0,0,1,.6.85ZM64.89,60Z" transform="translate(-16.78 -13.12)"/><path class="cls-6" d="M81,102.17H30.65a.52.52,0,0,1-.4-.18.53.53,0,0,1-.15-.41,66.86,66.86,0,0,1,2.22-13,5.4,5.4,0,0,1,3-3.21l13.11-5.18A30.53,30.53,0,0,0,49,75.41l1.11,0a31.14,31.14,0,0,1-.68,5.31.56.56,0,0,1-.33.37L35.76,86.4A4.28,4.28,0,0,0,33.37,89a64.64,64.64,0,0,0-2.11,12.13H80.4A66.79,66.79,0,0,0,78.3,89a4.36,4.36,0,0,0-2.43-2.57L62.34,81.12a.55.55,0,0,1-.34-.37,32.42,32.42,0,0,1-.59-5.28l1.11,0a32.79,32.79,0,0,0,.5,4.78h0L76.3,85.41a5.44,5.44,0,0,1,3,3.22,68.06,68.06,0,0,1,2.21,13,.53.53,0,0,1-.15.41A.52.52,0,0,1,81,102.17Z" transform="translate(-16.78 -13.12)"/><path class="cls-6" d="M55.74,83.45c-2.25,0-4.48-.76-7.29-2.28l.54-1c5.24,2.84,8.16,2.85,13.58,0l.61.91-.11,0C60.21,82.7,58,83.45,55.74,83.45Z" transform="translate(-16.78 -13.12)"/><polygon class="cls-6" points="54.67 88.58 53.93 83.45 55.02 83.3 55.77 88.43 54.67 88.58"/><polygon class="cls-6" points="23.42 88.58 22.32 88.43 23.07 83.3 24.17 83.45 23.42 88.58"/></svg>