<svg id="Layer_1" data-name="Layer 1" xmlns="http://www.w3.org/2000/svg" viewBox="0 0 76.23 81.41"><defs><style>.cls-1{fill:#343434;}</style></defs><title>patient</title><path id="path6908-4" class="cls-1" d="M40.91,52.5c-6.26,12.62-3.18,25,4.78,34.61A78.14,78.14,0,0,1,51,93.89c1.32,2,1.91,3.75,1.65,5.11-1.45,7.52-2.83,15.25-2.89,15.61a1.32,1.32,0,0,0,.28,1.07,1.29,1.29,0,0,0,1,.46H80.71a1.33,1.33,0,0,0,1-.52,1.31,1.31,0,0,0,.2-1.15,7.11,7.11,0,0,1-.27-2.68c.07-1.21.13-3,1.49-3.17,4.09-.42,9.93.73,12.88,1.21,2.3.38,4.13-.13,5.09-1.39a4.92,4.92,0,0,0,.7-4,5.74,5.74,0,0,1,.39-2.76c.39-.87.85-1.33,1.51-1.39a4,4,0,0,0,3.52-2.64,5.59,5.59,0,0,0-.68-4.32,2,2,0,0,1,.09-2.06,3.66,3.66,0,0,1,.92-1.11,7,7,0,0,1,1.41-.82c2.87-1.27,5.43-3.85,4.66-6.18-1.29-3.92-4.74-4-6.63-7.17-.89-1.51-.26-5,0-6.49a21.32,21.32,0,0,0-.28-6.35c-2.32-18-19.33-28.41-32.27-28.45s-28,6.5-33.57,17.76Z" transform="translate(-37.57 -34.74)"/></svg>