<svg id="Layer_1" data-name="Layer 1" xmlns="http://www.w3.org/2000/svg" viewBox="0 0 57.78 81.41"><defs><style>.cls-1{fill:#343434;}.cls-2{fill:#3a9cd7;}</style></defs><title>plan</title><g id="g11317"><path id="rect13535" class="cls-1" d="M47.49,39.46a1.84,1.84,0,0,0-1.84,1.84v73a1.84,1.84,0,0,0,1.84,1.84h54.1a1.84,1.84,0,0,0,1.84-1.84v-73a1.84,1.84,0,0,0-1.84-1.84H87.33c0,.39,0,.78,0,1.15,0,2.07.08,4.44-1.87,5.4-5.52.69-11.11.21-16.66.32-2,0-4.53.57-6.14-1-1.24-1.67-1-3.82-.91-5.83Zm1.85,11.9H99.75v61.08H49.34Z" transform="translate(-45.65 -34.72)"/><path id="rect6287-6-2-2-2-1-2-2-5-7-6-2-7-5-3-1-0-7-9" class="cls-1" d="M56.27,65.07a1.84,1.84,0,0,0-.05,3.68H71.36a1.84,1.84,0,1,0,0-3.68H56.27Z" transform="translate(-45.65 -34.72)"/><path id="rect6287-6-2-2-2-1-2-2-5-7-6-2-7-5-3-1-1-3-0-3" class="cls-1" d="M48.15,50.66a1.84,1.84,0,0,0-.06,3.68H99.33a1.84,1.84,0,1,0,0-3.68H48.15Z" transform="translate(-45.65 -34.72)"/><path id="rect6287-6-2-2-2-1-2-2-5-7-6-2-7-5-3-1-0-7-9-0" class="cls-1" d="M56.27,76.06a1.84,1.84,0,0,0-.05,3.68H78.3a1.84,1.84,0,1,0,0-3.68H56.27Z" transform="translate(-45.65 -34.72)"/><path id="rect6287-6-2-2-2-1-2-2-5-7-6-2-7-5-3-1-0-7-9-7" class="cls-1" d="M56.27,87.05a1.84,1.84,0,0,0-.05,3.68H88.85a1.84,1.84,0,0,0,.05-3.68H56.27Z" transform="translate(-45.65 -34.72)"/><path id="rect6287-6-2-2-2-1-2-2-5-7-6-2-7-5-3-1-0-7-9-4" class="cls-1" d="M56.27,98a1.85,1.85,0,0,0-.05,3.69H71.36a1.85,1.85,0,1,0,0-3.69H56.27Z" transform="translate(-45.65 -34.72)"/><path id="rect10388-19" class="cls-2" d="M65.09,34.72H84A1.23,1.23,0,0,1,85.21,36v7A1.24,1.24,0,0,1,84,44.2H65.09a1.25,1.25,0,0,1-1.22-1.26V36A1.24,1.24,0,0,1,65.09,34.72Z" transform="translate(-45.65 -34.72)"/></g></svg>