<svg id="Layer_1" data-name="Layer 1" xmlns="http://www.w3.org/2000/svg" viewBox="0 0 54.43 81.41"><defs><style>.cls-1{fill:#343434;}.cls-2{fill:#3a9cd7;}</style></defs><title>reports</title><g id="g23411"><path id="path14101-7" class="cls-1" d="M49.61,44.44a2.3,2.3,0,0,0-1.62.67,2.33,2.33,0,0,0-.67,1.62v67.12a2.3,2.3,0,0,0,2.29,2.29H99.47a2.3,2.3,0,0,0,2.29-2.29V61.77a3,3,0,0,0-.7-1.74l-15.6-15a2.31,2.31,0,0,0-1.54-.62H74c.08,1.53.14,3.05.2,4.58h7.38V61.68a2.33,2.33,0,0,0,.67,1.62,2.3,2.3,0,0,0,1.62.67H97.18v47.59H51.9V49h4V44.44Zm36.55,7.75,7.52,7.2H86.16Z" transform="translate(-47.32 -34.73)"/><path id="rect14107-3" class="cls-1" d="M59.66,91H89.42a2.28,2.28,0,0,1,2.29,2.29h0a2.29,2.29,0,0,1-2.29,2.29H59.66a2.29,2.29,0,0,1-2.29-2.29h0A2.28,2.28,0,0,1,59.66,91Z" transform="translate(-47.32 -34.73)"/><path id="rect14147-5" class="cls-1" d="M59.66,99.56H89.42a2.28,2.28,0,0,1,2.29,2.29h0a2.29,2.29,0,0,1-2.29,2.29H59.66a2.29,2.29,0,0,1-2.29-2.29h0A2.28,2.28,0,0,1,59.66,99.56Z" transform="translate(-47.32 -34.73)"/><path id="path3-1-2" class="cls-2" d="M63.2,34.73a9.17,9.17,0,0,0-5.37,1.73,7.41,7.41,0,0,0-3.32,5.88h0v.11l2.48,0v-.06a5,5,0,0,1,2.28-3.87,6.5,6.5,0,0,1,4.83-1.18h.05a6.53,6.53,0,0,1,3.69,2l0,0c1.5,1.46,1.64,3.94,1.8,6.52.07,8.77.56,17.52.26,26.16a3.77,3.77,0,0,1-2,3,5,5,0,0,1-3.91.57c-2.26-.7-3.61-3.16-3.52-5.69.27-8.09-.28-16.13-.16-24h0a2,2,0,0,1,1.43-1.76,3.24,3.24,0,0,1,2.76,0l.06,0a2.51,2.51,0,0,1,1.19,1.5,8.76,8.76,0,0,1,.42,2.49l.17,16.73a1.27,1.27,0,0,0,.36.89,1.29,1.29,0,0,0,.89.36,1.25,1.25,0,0,0,1.23-1.27l-.17-16.78v0a10.44,10.44,0,0,0-.57-3.24A5.09,5.09,0,0,0,65.85,42h0l-.06,0h0a5.54,5.54,0,0,0-4.95-.17,4.53,4.53,0,0,0-2.92,4h0c-.13,8.06.41,16.08.14,24C58,73.27,59.82,76.86,63.35,78a7.33,7.33,0,0,0,5.93-.83,6.27,6.27,0,0,0,3.15-5c.3-8.8-.19-17.57-.26-26.27v-.07c-.16-2.51-.16-5.83-2.53-8.17v0l0,0a9,9,0,0,0-5-2.66h0a7.51,7.51,0,0,0-1.33-.14Z" transform="translate(-47.32 -34.73)"/></g></svg>