<svg id="Layer_1" data-name="Layer 1" xmlns="http://www.w3.org/2000/svg" viewBox="0 0 81.41 68.93"><defs><style>.cls-1{fill:#343434;}.cls-2{fill:#3a9cd7;}</style></defs><title>symptoms</title><g id="g10093"><path id="path6908" class="cls-1" d="M37.3,54.21c-4.74,9.55-2.41,18.9,3.61,26.18a59.88,59.88,0,0,1,4,5.13c1,1.55,1.44,2.84,1.24,3.87C45.08,95.08,44,100.93,44,101.2a1,1,0,0,0,.22.81,1,1,0,0,0,.75.35H67.41a1,1,0,0,0,.78-.4,1,1,0,0,0,.16-.86,5.36,5.36,0,0,1-.21-2c.06-.91.1-2.28,1.13-2.39,3.09-.32,7.51.55,9.74.92,1.75.28,3.13-.1,3.86-1.06a3.73,3.73,0,0,0,.53-3,4.22,4.22,0,0,1,.29-2.09c.29-.66.64-1,1.14-1a3,3,0,0,0,2.67-2A4.27,4.27,0,0,0,87,85.13a1.51,1.51,0,0,1,.07-1.56,3,3,0,0,1,.7-.84,5.1,5.1,0,0,1,1.06-.62c2.17-1,4.11-2.91,3.53-4.68-1-3-3.59-3-5-5.42-.67-1.14-.2-3.76,0-4.91a16.24,16.24,0,0,0-.22-4.8C85.35,48.67,72.49,40.8,62.7,40.77S41.53,45.69,37.3,54.21Z" transform="translate(-34.77 -40.77)"/><path id="path10087" class="cls-2" d="M93.53,83.72c-.09.11-.18.21-.27.33l-.08.09h0a1.21,1.21,0,0,0-.22.78,1.78,1.78,0,0,0,.17.94,1.89,1.89,0,0,0,.67.67l.42.28s.06.05,0,.05a1.37,1.37,0,0,0,.17.17,21.59,21.59,0,0,0,8.62,4.46,1.31,1.31,0,0,0,1.55-1l0-.2h0s.09-.3.18-.64a2.07,2.07,0,0,0-.17-1.87,1.3,1.3,0,0,0-.76-.54,19.89,19.89,0,0,1-7.77-4.47,1.3,1.3,0,0,0-1.81.1l-.78.82ZM89.71,88l-.6.67a1.31,1.31,0,0,0,.1,1.8h0a19.54,19.54,0,0,1,5.23,7.35,1.31,1.31,0,0,0,1.67.77l.15-.07c-.13.07.08,0,.46,0a2.14,2.14,0,0,0,1.63-.79,1.29,1.29,0,0,0,.21-1.24,23.76,23.76,0,0,0-6.43-9.17,1.29,1.29,0,0,0-1.83.06l0,0-.58.63Zm1,12.7a1.25,1.25,0,0,0-.35.84c-.14,3.53,2.08,7.41,6,8h.08a8.05,8.05,0,0,0,7.16-2.3,9.49,9.49,0,0,1,1.41.14,6.21,6.21,0,0,0,2.55,0h0l.17,0c4.91-.82,8.4-6.1,6.79-10.94a7.05,7.05,0,0,1-.22-1s0,0,0,0a1.37,1.37,0,0,0,.22-.2,7.5,7.5,0,0,0,1.42-6.91,7,7,0,0,0-4.84-5.08H111a6.73,6.73,0,0,0-3.79-.2,1.3,1.3,0,0,0-.92,1,4.44,4.44,0,0,0-.32,1.38,1.3,1.3,0,0,0,1.23,1.36h.08a5.79,5.79,0,0,1,2.75.66,2.79,2.79,0,0,1,1.51,1.81s0,0,0,.07a4.12,4.12,0,0,1-1.65,4.37,1.3,1.3,0,0,0-.35,1.8l0,.07c1.75,2.24.91,6.4-1.84,7.38h0a5.44,5.44,0,0,1-4.57-.37,1.28,1.28,0,0,0-1.76.48.47.47,0,0,0,0,.1,3.9,3.9,0,0,1-2.94,2A3.13,3.13,0,0,1,95.25,104l0,0a6.54,6.54,0,0,1-1-2.93,1.29,1.29,0,0,0-1.47-1.08l-.2,0-.54.1a2.49,2.49,0,0,0-1.15.43,1,1,0,0,0-.19.17Z" transform="translate(-34.77 -40.77)"/></g></svg>